<?xml version="1.0" encoding="UTF-8"?>
<svg width="33px" height="33px" viewBox="0 0 33 33" version="1.1" xmlns="http://www.w3.org/2000/svg" xmlns:xlink="http://www.w3.org/1999/xlink">
    <!-- Generator: Sketch 50.2 (55047) - http://www.bohemiancoding.com/sketch -->
    <title>facebook</title>
    <desc>Created with Sketch.</desc>
    <defs></defs>
    <g id="index" stroke="none" stroke-width="1" fill="none" fill-rule="evenodd">
        <g id="index-Desktop" transform="translate(-859.000000, -1719.000000)" fill="#A9880F">
            <g id="social" transform="translate(859.000000, 1719.000000)">
                <path d="M16.5,30.870736 C8.56296269,30.870736 2.12926404,24.4370373 2.12926404,16.5 C2.12926404,8.56296269 8.56296269,2.12926404 16.5,2.12926404 C24.4366381,2.12926404 30.870736,8.56296269 30.870736,16.5 C30.870736,24.4370373 24.4366381,30.870736 16.5,30.870736 M16.5,0 C25.6126433,0 33,7.38695747 33,16.5 C33,25.6130425 25.6126433,33 16.5,33 C7.38695747,33 0,25.6130425 0,16.5 C0,7.38695747 7.38695747,0 16.5,0 Z M14.1617615,25.7818588 L17.8730041,25.7818588 L17.8730041,16.4883837 L20.4621317,16.4883837 L20.7383691,13.3767201 L17.8730041,13.3767201 L17.8730041,11.6043294 C17.8730041,10.8706235 18.0203041,10.5808136 18.7296596,10.5808136 L20.7383691,10.5808136 L20.7383691,7.3513899 L18.1684025,7.3513899 C15.4068261,7.3513899 14.1617615,8.56771302 14.1617615,10.8957722 L14.1617615,13.3767201 L12.2312926,13.3767201 L12.2312926,16.5271048 L14.1617615,16.5271048 L14.1617615,25.7818588 Z" id="facebook"></path>
            </g>
        </g>
    </g>
</svg>