<?xml version="1.0" encoding="UTF-8"?>
<svg width="33px" height="33px" viewBox="0 0 33 33" version="1.1" xmlns="http://www.w3.org/2000/svg" xmlns:xlink="http://www.w3.org/1999/xlink">
    <!-- Generator: Sketch 50.2 (55047) - http://www.bohemiancoding.com/sketch -->
    <title>twitter</title>
    <desc>Created with Sketch.</desc>
    <defs></defs>
    <g id="index" stroke="none" stroke-width="1" fill="none" fill-rule="evenodd">
        <g id="index-Desktop" transform="translate(-904.000000, -1719.000000)" fill="#A9880F">
            <g id="social" transform="translate(859.000000, 1719.000000)">
                <path d="M61.5,30.870736 C53.5629627,30.870736 47.129264,24.4370373 47.129264,16.5 C47.129264,8.56296269 53.5629627,2.12926404 61.5,2.12926404 C69.4366381,2.12926404 75.870736,8.56296269 75.870736,16.5 C75.870736,24.4370373 69.4366381,30.870736 61.5,30.870736 M61.5,0 C70.6126433,0 78,7.38695747 78,16.5 C78,25.6130425 70.6126433,33 61.5,33 C52.3869575,33 45,25.6130425 45,16.5 C45,7.38695747 52.3869575,0 61.5,0 Z M54.1382312,22.4379083 C55.6132276,23.3835825 57.3652598,23.9356583 59.2474271,23.9356583 C65.4356256,23.9356583 68.9317063,18.7087023 68.7209355,14.0206489 C69.3720097,13.5512048 69.9372587,12.9643998 70.383949,12.2953622 C69.7859668,12.5604224 69.1436747,12.7396574 68.4698469,12.819894 C69.1576462,12.4083321 69.68617,11.7548628 69.9348636,10.9760488 C69.2909747,11.3580708 68.5776274,11.6355059 67.8187727,11.785201 C67.2108107,11.1373204 66.3445747,10.7329438 65.3857272,10.7329438 C63.2345079,10.7329438 61.6533278,12.7404558 62.1391385,14.8254101 C59.3691791,14.686493 56.9129808,13.359595 55.2695275,11.3425025 C54.3961061,12.841051 54.8164501,14.8010597 56.301027,15.7930396 C55.7545398,15.7758746 55.2399877,15.625381 54.7909022,15.3758891 C54.7549753,16.920344 55.8611228,18.3642038 57.4642582,18.6863478 C56.9948142,18.8140877 56.4810604,18.8428291 55.9593228,18.7430324 C56.3828604,20.0679344 57.6139534,21.0307737 59.0725831,21.0579184 C57.6718355,22.1564813 55.9066301,22.6466831 54.1382312,22.4379083 Z" id="twitter"></path>
            </g>
        </g>
    </g>
</svg>