<?xml version="1.0" encoding="UTF-8"?>
<svg width="33px" height="33px" viewBox="0 0 33 33" version="1.1" xmlns="http://www.w3.org/2000/svg" xmlns:xlink="http://www.w3.org/1999/xlink">
    <!-- Generator: Sketch 50.2 (55047) - http://www.bohemiancoding.com/sketch -->
    <title>imdb</title>
    <desc>Created with Sketch.</desc>
    <defs></defs>
    <g id="My-Symbols" stroke="none" stroke-width="1" fill="none" fill-rule="evenodd">
        <g id="imdb" fill="#A9880F">
            <path d="M16.5,30.870736 C8.56296269,30.870736 2.12926404,24.4370373 2.12926404,16.5 C2.12926404,8.56296269 8.56296269,2.12926404 16.5,2.12926404 C24.4366381,2.12926404 30.870736,8.56296269 30.870736,16.5 C30.870736,24.4370373 24.4366381,30.870736 16.5,30.870736 M16.5,0 C25.6126433,0 33,7.38695747 33,16.5 C33,25.6130425 25.6126433,33 16.5,33 C7.38695747,33 0,25.6130425 0,16.5 C0,7.38695747 7.38695747,0 16.5,0 Z M8.31566628,11.8259181 C8.31766222,11.8674336 8.3212549,11.9093482 8.3212549,11.9508637 C8.3212549,14.9280012 8.3212549,17.9043403 8.3212549,20.8810785 L8.3212549,21.0331688 L10.4341523,21.0331688 L10.4341523,15.2681086 C10.4445311,15.2673102 10.4553092,15.266911 10.4656881,15.2661126 C10.5056068,15.5327696 10.546723,15.7994266 10.5854442,16.0664828 C10.7355385,17.1091595 10.8852337,18.1522354 11.0353281,19.1949122 C11.1143671,19.7429961 11.1954021,20.2906808 11.274042,20.8387647 C11.2995899,21.0176005 11.2971948,21.0279794 11.4740347,21.0303745 C11.8632421,21.0359631 12.2528487,21.0295761 12.6424554,21.0311729 C12.7542278,21.0315721 12.7981383,20.9876615 12.8137066,20.8718972 C13.0136994,19.3613732 13.2192807,17.8520467 13.4232654,16.3423211 C13.4803491,15.9191828 13.5362353,15.4960444 13.6200646,15.0737045 L13.6200646,21.0239875 L15.713801,21.0239875 L15.713801,11.8486718 C15.6734831,11.8486718 15.6331652,11.849071 15.5928473,11.8486718 C15.0200138,11.8454783 14.4467811,11.8422848 13.8735484,11.8382929 C13.8400167,11.8378937 13.8060858,11.8303092 13.7725541,11.8259181 L12.603335,11.8259181 C12.5079293,12.5676078 12.4125236,13.3092974 12.3171179,14.0513863 C12.2372804,14.6721222 12.1578422,15.2932574 12.0776056,15.9143925 C12.0740129,15.9423356 12.0664284,15.9698795 12.0364893,15.9978226 C12.0041552,15.7894469 11.9690267,15.5814705 11.9390877,15.3730948 C11.7762193,14.2509798 11.613351,13.129264 11.4548737,12.0067499 C11.4381079,11.8881913 11.4005843,11.8370954 11.2708485,11.8438816 C11.111972,11.8514661 10.951898,11.8331035 10.7918239,11.8259181 L8.31566628,11.8259181 Z M18.800196,13.3916897 C18.9626651,13.4232254 19.1163522,13.4467775 19.2672449,13.4831035 C19.4197344,13.5198287 19.4955799,13.6288068 19.5051604,13.7824938 C19.5207287,14.0411671 19.5450791,14.3006387 19.5458775,14.5597111 C19.5506677,15.7516838 19.5522645,16.9432574 19.5454783,18.1352301 C19.5438816,18.4362172 19.5087531,18.7372042 19.4844027,19.0373929 C19.4672376,19.252954 19.3406953,19.3763028 19.1347148,19.4186166 C19.0269342,19.4409711 18.9171578,19.4525475 18.800196,19.4701118 L18.800196,13.3916897 Z M16.4094644,11.8260778 C16.4082668,11.875577 16.4062709,11.9250762 16.4062709,11.9749746 L16.4062709,20.8924154 L16.4062709,21.0341269 C16.4382058,21.0377196 16.4637538,21.0437074 16.4889026,21.0433082 C17.7455436,21.0285382 19.0025838,21.0185586 20.2592249,20.9926114 C20.4843664,20.9878212 20.7162941,20.9407171 20.9302584,20.8692626 C21.550196,20.663282 21.8523806,20.2018217 21.8851139,19.5655175 C21.9186457,18.9016693 21.9477863,18.2370228 21.9477863,17.5727754 C21.9473871,16.3732182 21.9286253,15.1736609 21.9062709,13.9745028 C21.9002831,13.6323995 21.8863115,13.2867034 21.7430033,12.9633619 C21.4967049,12.4100885 21.0472202,12.118682 20.4783786,11.9893453 C19.9390768,11.8663957 19.387001,11.8687908 18.8373204,11.8476339 C18.6776455,11.8416461 18.5179707,11.8332632 18.3582958,11.8260778 L16.4094644,11.8260778 Z M24.8002577,17.2365801 C24.8002577,16.5491799 24.7994593,15.8617796 24.801056,15.1739803 C24.8014552,15.094542 24.8118341,15.0143054 24.8226121,14.9348672 C24.8453658,14.7700029 24.9260016,14.6957541 25.0848781,14.6873712 C25.2265895,14.6801858 25.3738895,14.7819785 25.3970424,14.9185005 C25.4197961,15.0534258 25.4385578,15.1911453 25.438957,15.3276673 C25.4437473,16.6302148 25.4457432,17.9327624 25.4441465,19.2353099 C25.4441465,19.3602555 25.4245863,19.4863986 25.4010343,19.6093482 C25.3746879,19.7438743 25.2657098,19.828502 25.1343773,19.8352881 C24.9990528,19.8420743 24.8737081,19.764632 24.8441682,19.6257149 C24.8102373,19.4664393 24.7870845,19.301575 24.7854877,19.1387066 C24.7791007,18.5047975 24.7830926,17.8704892 24.7830926,17.2365801 L24.8002577,17.2365801 Z M22.4853716,11.825998 C22.4849724,14.8638119 22.484174,17.902025 22.484174,20.9398389 C22.484174,20.9693787 22.4881659,20.9989186 22.4901619,21.0348454 C22.5296814,21.0368413 22.5632131,21.0396357 22.5963456,21.0396357 C23.2346458,21.0400348 23.872946,21.0376397 24.510847,21.04243 C24.6034584,21.0432283 24.6369901,21.0096966 24.6553527,20.9266657 C24.6872877,20.78216 24.728404,20.6396502 24.7699194,20.4807737 C24.7986609,20.5063217 24.8174227,20.5214908 24.8337894,20.5386558 C25.1583285,20.8883437 25.5403506,21.1298519 26.0289556,21.1693715 C26.6560785,21.219669 27.5091414,20.8847511 27.6736065,20.0464581 C27.7183154,19.8197198 27.7266984,19.5834011 27.7274967,19.3510742 C27.7338837,17.7195965 27.7354805,16.0881187 27.732287,14.4562418 C27.7318878,14.3672231 27.683187,14.2750109 27.6456634,14.1891857 C27.422917,13.6774278 27.0113551,13.4443025 26.4732508,13.3828277 C25.8453295,13.3105748 25.3016367,13.4738424 24.8485593,13.9209319 C24.8337894,13.9353027 24.81383,13.9452823 24.7834918,13.9664393 C24.7802983,13.9105531 24.7763064,13.8706343 24.7759072,13.8303164 C24.7731129,13.2075846 24.7707178,12.5848527 24.7671251,11.9617216 C24.7667259,11.9166134 24.7591414,11.8711061 24.7551495,11.825998 L22.4853716,11.825998 Z M7.65082015,11.8259181 L5.26607635,11.8259181 L5.26607635,21.0323704 L7.65361446,21.0323704 L7.65361446,20.879881 C7.65361446,17.9115256 7.65361446,14.9431703 7.65361446,11.9748149 C7.65361446,11.9253157 7.65161852,11.8754173 7.65082015,11.8259181 Z"></path>
        </g>
    </g>
</svg>