<?xml version="1.0" encoding="UTF-8"?>
<svg width="33px" height="33px" viewBox="0 0 33 33" version="1.1" xmlns="http://www.w3.org/2000/svg" xmlns:xlink="http://www.w3.org/1999/xlink">
    <!-- Generator: Sketch 50.2 (55047) - http://www.bohemiancoding.com/sketch -->
    <title>instagram</title>
    <desc>Created with Sketch.</desc>
    <defs></defs>
    <g id="index" stroke="none" stroke-width="1" fill="none" fill-rule="evenodd">
        <g id="index-Desktop" transform="translate(-949.000000, -1719.000000)" fill="#A9880F">
            <g id="social" transform="translate(859.000000, 1719.000000)">
                <path d="M106.5,30.870736 C98.5629627,30.870736 92.129264,24.4370373 92.129264,16.5 C92.129264,8.56296269 98.5629627,2.12926404 106.5,2.12926404 C114.436638,2.12926404 120.870736,8.56296269 120.870736,16.5 C120.870736,24.4370373 114.436638,30.870736 106.5,30.870736 M106.5,0 C115.612643,0 123,7.38695747 123,16.5 C123,25.6130425 115.612643,33 106.5,33 C97.3869575,33 90,25.6130425 90,16.5 C90,7.38695747 97.3869575,0 106.5,0 Z M110.433789,13.4100123 C109.94239,13.4132058 109.557174,13.0419618 109.545598,12.5533568 C109.534022,12.0559697 109.927221,11.6487988 110.423411,11.6456053 C110.908822,11.6420126 111.323577,12.0579656 111.31759,12.5425787 C111.311203,13.0220025 110.9196,13.4068188 110.433789,13.4100123 Z M106.473494,14.0136631 C105.136217,14.0024858 103.994542,15.1082341 103.976179,16.4323378 C103.95622,17.8318878 105.05638,18.9671759 106.44595,18.9815467 C107.793606,18.9955182 108.938075,17.8710081 108.943265,16.5281427 C108.948055,15.144161 107.849093,14.0252395 106.473494,14.0136631 Z M106.443515,20.300381 C104.309461,20.2923973 102.657624,18.6062309 102.660818,16.4378466 C102.664411,14.3708557 104.364549,12.6950682 106.460281,12.694669 C108.580763,12.6938707 110.257748,14.3748476 110.262538,16.5053092 C110.267328,18.6150131 108.563598,20.3079656 106.443515,20.300381 Z M113.817299,16.5168856 L113.813307,16.5168856 C113.813307,15.3548519 113.854823,14.1908223 113.804126,13.0311838 C113.708321,10.8324612 112.07365,9.20337857 109.874927,9.15587531 C107.607944,9.10717448 105.338166,9.10597692 103.071582,9.15547612 C100.832142,9.20417695 99.1775112,10.8408441 99.1224234,13.0762919 C99.0657389,15.3540536 99.0657389,17.6354079 99.1220242,19.9131695 C99.1775112,22.1510125 100.818569,23.7828894 103.065594,23.8387756 C105.309824,23.895061 107.557247,23.8946618 109.801876,23.8415699 C112.112371,23.7872804 113.720297,22.16698 113.809715,19.8684606 C113.853226,18.7527326 113.817299,17.6342103 113.817299,16.5168856 Z" id="instagram"></path>
            </g>
        </g>
    </g>
</svg>