<svg xmlns="http://www.w3.org/2000/svg" viewBox="0 0 1535.81 971.57"><defs><style>.cls-1{fill:#fff;}</style></defs><title>logo-vertical_1</title><g id="Capa_2" data-name="Capa 2"><g id="Capa_1-2" data-name="Capa 1"><path class="cls-1" d="M1092,455.55c-3-1.92-7.52-2.95-13-3h-5c-4.88,0-9,1.19-11.56,3.35a9.63,9.63,0,0,0-3.48,8.07l.47,3.67c.27,2.18.77,6.21,1.3,11.15l.58,5.78c0,.16,0,.37.06,1l.13,3.89c.24,7.9.2,15.56-.1,22.77A206,206,0,0,1,1059,536.5a132.48,132.48,0,0,1-6.23,24.23,83.43,83.43,0,0,1-11.66,21.76A64.45,64.45,0,0,1,1023,598.74a72,72,0,0,1-11.11,5.43,83.06,83.06,0,0,1-12.13,3.62,106.13,106.13,0,0,1-12.64,2l-1.43.12c-1.67.14-3.4.28-5.28.33l-.86,0c-.8,0-1.62.07-2.35.07h-2.76a102.31,102.31,0,0,1-44.71-11.09A137.41,137.41,0,0,1,899.11,578c-4.31-4-8.43-8.13-12.28-12.38-4.5-5-8.91-10.47-13.13-16.17A295,295,0,0,1,848,507.33a406,406,0,0,1-21.47-51.25,491.65,491.65,0,0,1-15.25-54.56,515,515,0,0,1-8.64-51.86c-.29-2.44-.54-4.85-.78-7.23a12.75,12.75,0,0,1,11.16-14c11.36-1.45,22.57-3.16,33.33-5.09a567.16,567.16,0,0,0,79.53-19.92c25.83-8.63,48.56-18.77,67.58-30.14,5.28-3.17,9.81-6.09,13.85-8.95,1.75-1.2,3.45-2.46,4.95-3.57l1.57-1.16c.55-.42,1.16-.9,1.77-1.39l1.2-.94c1-.77,1.93-1.51,2.78-2.24a152.31,152.31,0,0,0,19.71-19.33l2.16-2.6,1.12-1.45.79-1c1.08-1.35,2.08-2.8,3.15-4.34l.91-1.3c.38-.54.74-1.12,1.12-1.72s.53-.86.79-1.25l.13-.22c.59-.92,1.14-1.78,1.59-2.61l2-3.49,1.81-3.58a95.42,95.42,0,0,0,9.34-32.45c0-.32.07-.86.12-1.41.11-1.16.21-2.14.25-3.05l.17-4.71-.11-5.82c0-.39,0-.79,0-1.19l-.19-2.38c-.05-.45-.09-1-.14-1.65-.08-1.12-.16-2.09-.28-2.93l-.76-5.3c-.14-.84-.37-1.92-.61-3.06l-.36-1.72c-.28-1.52-.7-3-1.15-4.66a100.16,100.16,0,0,0-7.31-19.14,116.66,116.66,0,0,0-11.24-17.92,132.14,132.14,0,0,0-14.23-15.85A176.4,176.4,0,0,0,1011.88,75a243.92,243.92,0,0,0-36.76-22.09C952.5,41.81,926.6,32.38,896,24.12A742.46,742.46,0,0,0,820.09,8.24c-4.65-.74-9.34-1.55-13.87-2.33l-.19,0c-6.37-1.1-12.95-2.24-19.41-3.18l-2.3-.34C761.65-1,745.27-3.38,733.85,14.19c-1.07,1.63-1.28,2.31-1.29,6.37-.17,40-.6,93.58-1.28,159.4a12.84,12.84,0,0,1-24.53,5.18l0-.11a257.87,257.87,0,0,0-20.92-37.3,265.7,265.7,0,0,0-27.72-34.41A288.93,288.93,0,0,0,624.83,83.7a320.1,320.1,0,0,0-36.63-24L583.37,57l-4.67-2.46c-1.49-.8-3-1.6-4.62-2.37l-4.91-2.45c-5.12-2.44-11.95-5.64-18.84-8.49-6.5-2.72-12.82-5.18-18.81-7.32-5.63-2.05-11.65-4.06-18.43-6.17-11.37-3.51-23.11-6.6-34.88-9.19l-.15,0-3.14-.8-6-1.59c-4.72-1.2-8.74-2.17-11.59-2.81l-4-.89c-3.87-.45-6.8.44-9,2.72a13.1,13.1,0,0,0-2.71,4.55,21.53,21.53,0,0,0-1.31,6.82l-.21,4.94a37.12,37.12,0,0,0,.45,7.86,17.58,17.58,0,0,0,1.8,5.4,7.61,7.61,0,0,0,5.93,4.12c1.73.07,7,.31,14.55,1l7.9.82.95.16c11,1.94,22,4.35,32.63,7.18a349.93,349.93,0,0,1,70.31,26.67,288.49,288.49,0,0,1,34.22,20.61A259.6,259.6,0,0,1,640,131a234.45,234.45,0,0,1,46.25,63.63A240.54,240.54,0,0,1,700,229a286,286,0,0,1,8.26,33.11c1.65,9.17,2.92,18.53,3.78,27.84a12.84,12.84,0,0,1-13,14l-52.86-.77-21.15-1.59c-4.9.17-10.62,3.12-10.46,16l0,4.88c.08,5.88,1.59,15.73,10.85,15.91l22.29-2L699,334.92a12.85,12.85,0,0,1,13.15,14l0,.18c-.06.69-.13,1.35-.18,2-.09.87-.16,1.59-.22,2.32-.16,1.82-.31,3.6-.6,5.51l-.95,7.29c-.15,1.34-.38,2.7-.64,4.2l-.65,3.81a257.59,257.59,0,0,1-21.09,67.89,234.75,234.75,0,0,1-19.49,33.64,231.54,231.54,0,0,1-25.67,30.67c-1.62,1.71-3.4,3.39-5.13,5l-.3.28-1.71,1.62c-.84.83-1.74,1.61-2.6,2.37l-1.21,1.07-1.2,1.07-.18.15c-.84.76-1.68,1.51-2.56,2.24l-2.47,2.05c-1.75,1.47-3.53,3-5.45,4.4l-3.87,3-4,2.92a279.85,279.85,0,0,1-34,21.1,345.16,345.16,0,0,1-70,27.42c-5.78,1.59-11.38,3-16.64,4.19s-10.54,2.31-15.88,3.3l-.87.16c-1,.19-2,.38-3,.55l-3.16.49-5.42.53c-7.82.67-13.21.91-14.65,1a7.65,7.65,0,0,0-6,4.14c-1.71,3.12-2.49,7.69-2.23,13.21l.21,4.9c.23,4.88,1.65,8.94,4,11.43,2.17,2.28,5.08,3.18,8.9,2.74l4-.9c2.85-.64,6.89-1.62,11.68-2.84l7.79-2,5.49-1.22c5.66-1.29,11.37-2.72,17-4.26s11.66-3.3,17.79-5.26a379.59,379.59,0,0,0,74.75-32.75,309.82,309.82,0,0,0,36.32-24.49l4.41-3.49L636.8,547c2-1.59,3.86-3.31,5.71-5,.93-.84,1.84-1.66,2.77-2.47s1.63-1.53,2.48-2.34l1.48-1.41c.38-.38.88-.84,1.37-1.31.93-.87,1.71-1.61,2.43-2.36l2.19-2.23c1.89-1.92,3.85-3.9,5.6-5.86a260.13,260.13,0,0,0,27.29-34.92,263.6,263.6,0,0,0,20.27-37.64c.3-.69.59-1.38.88-2.07l19.37-45.72L728,452.52c-.45,32.85-1,171.14-1,177a12.8,12.8,0,0,0,12.78,12.79h44.94a12.79,12.79,0,0,0,12.78-12.78l-.59-118.85a12.83,12.83,0,0,1,24.26-5.91c3,5.85,5.35,10.3,7,13.22a339.21,339.21,0,0,0,29.16,44c4.74,6,9.69,11.8,14.72,17.22,4.29,4.57,8.77,9,13.69,13.52a176.12,176.12,0,0,0,34.46,24.81,131.66,131.66,0,0,0,24.5,10.23,119.71,119.71,0,0,0,28.72,5.1l4,.17c.73,0,1.44,0,2.16,0h1.5c2.15,0,4.37-.05,6.71-.14l.89,0a131.37,131.37,0,0,0,15.34-1.66,110.52,110.52,0,0,0,15.77-3.84,99.34,99.34,0,0,0,15.44-6.56,90.86,90.86,0,0,0,26.44-21.24,111.19,111.19,0,0,0,17.26-28,162.14,162.14,0,0,0,9.38-29.2,238.13,238.13,0,0,0,4.43-27.7c.83-8.05,1.36-16.25,1.62-25.05l.12-4.38c0-.48,0-.68,0-.83l.39-6.29c.27-4.62.44-8.38.56-11.16l.2-4.51C1095.45,459.14,1094.35,457.06,1092,455.55ZM777.46,608.79a14.78,14.78,0,0,1-29.56,0V29.37a14.78,14.78,0,0,1,29.56,0Zm21.3-310.7-.5-.5a12.86,12.86,0,0,1-4.1-9.25c-.32-27.9-.62-55.37-.89-81.84l-.95-107.71-.27-47.61a12.83,12.83,0,0,1,14.16-12.85c3.15.33,6.33.68,9.56,1.06a702.48,702.48,0,0,1,73.35,12.26c29.13,6.61,53.71,14.5,75.14,24.12a215.12,215.12,0,0,1,33.66,18.61,151.36,151.36,0,0,1,14.55,11.41,108,108,0,0,1,12.32,12.85,83.85,83.85,0,0,1,15.63,29l.07.21a39,39,0,0,1,1.06,4c0,.18.13.52.21.87.19.77.41,1.64.58,2.61l.6,3.51c.19,1,.28,2,.36,2.81,0,.36.06.65.1.94l.19,1.75c0,.37.07.69.08,1l.21,4.67c0,.26,0,.51,0,.77l0,3.11c0,.9-.08,1.7-.14,2.51,0,.33,0,.67-.07,1-1.26,16.36-7.84,31.64-19.58,45.48-9.43,11.37-24,23-41,32.61-17.6,10-39.73,19.19-64,26.46-32.53,9.79-70.48,16.8-109.72,20.27-.37,0-.74.05-1.12.05A12.89,12.89,0,0,1,798.76,298.09Z"/><path class="cls-1" d="M194.15,752.08c3.64-13.34-1.09-24.12-13-29.59-10.73-4.94-26.22-5-41.42-.22C123,727.57,108.62,738,99.39,751.6c-10,14.87-12.65,30.75-7.29,43.9-28.72,5.89-58.41,12.23-90.46,34.59a3.89,3.89,0,0,0-.83,5.56,3.94,3.94,0,0,0,5.59,1c28.82-20.33,55.47-26.8,89.81-33.54,6.25,8.34,16.13,14,28.3,16.33-27.49,10-49,23-63.93,38.62-13.83,14.46-21.81,30.78-23.71,48.53-1.66,16.65,4.7,32.56,17,42.56a48.12,48.12,0,0,0,30.68,10.58,59.83,59.83,0,0,0,18-2.87c23.62-7.21,48.37-33.08,56.35-58.9,5.07-16.37,3.06-30.89-5.8-42A29.37,29.37,0,0,0,122,845.65c-11.24,3.14-18.79,12.24-20.22,24.35v.18a4.39,4.39,0,0,0,4.18,4.45,3.81,3.81,0,0,0,4.1-3.54c.92-8.66,6.2-15.21,14.1-17.52A21.5,21.5,0,0,1,147,860.91c8.77,11.3,7,25.1,4,34.69-7.38,23.46-29.7,47-50.81,53.53-12.91,4.09-24.54,2.56-32.74-4.31C58.07,937,53.93,923.17,56.08,907c3.17-24,19.8-67.16,95.59-87.45a4.15,4.15,0,0,0,2.78-5.13,4.2,4.2,0,0,0-5-3.06c-27.05,3.73-37.54-4.39-41.58-10.69,15.19-3.24,28.13-6.54,41.25-11.72C181.14,776.38,191.28,762,194.15,752.08Zm-7.79-2.32c-4.59,15.48-27.18,26.36-40.24,31.47-14.1,5.57-28.35,8.94-41.71,11.71C102.62,783.75,106,772,114,759.69c13-19.33,37.76-31,55.06-31a26.16,26.16,0,0,1,11,2.08C186.77,734,189,740.52,186.36,749.76Z"/><path class="cls-1" d="M410.13,794.48a11.13,11.13,0,0,0,2.09-.19l.12,0a8,8,0,0,0,5.39-4.34,7.47,7.47,0,0,0-.29-6.46c-2.2-4.39-7.79-7-12.26-5.7a7.34,7.34,0,0,0-5.27,3.88,7.72,7.72,0,0,0,.1,6.88C401.63,792.49,406.06,794.48,410.13,794.48Z"/><path class="cls-1" d="M646.1,847.51a3.85,3.85,0,0,0-3-1,4,4,0,0,0-2.89,1.64c-2,2.5-4.47,5.84-7.36,9.7-13.06,17.5-37.37,50.07-51.06,50.07a3.6,3.6,0,0,1-3.19-1.48c-5.16-7.23,5.12-37.1,12.63-58.91,3.1-9,6-17.51,7.83-24,.85-2.53-.37-5.1-3.1-6.57s-6.56-1.54-8.56,1l-.09.13a136.94,136.94,0,0,0-11.39,23.51c-11.18,17.23-34.26,52.79-48.55,53.89-3.65.2-5.59-1.68-5.89-5.76-1-13.68,17.5-45.45,38.12-47.47,1.22,0,3.88,0,4.66.89a1,1,0,0,1,.19.84v.17a4,4,0,0,0,3.58,4.14c2.11.42,4.06-1,4.66-3.4l0-.2a7.67,7.67,0,0,0-2.11-6.33c-3-3.17-8.75-4.3-13-4-28.35.81-41,19.72-45.07,27.81a48.93,48.93,0,0,0-3.88,10.47c-16.49,21.31-37.81,45.16-47.57,45.16a4.63,4.63,0,0,1-.65,0c-.4,0-.47-.16-.51-.24-1.28-2.16,3-11.9,6.7-20.49,8.35-19.17,18.73-43,6.7-52.9-4.61-3.79-10.21-2-15.14-.5a42.56,42.56,0,0,1-5.65,1.49,52.62,52.62,0,0,0,4.66-10.71c2.94-9.5.3-16.7-3.14-20.27a9.7,9.7,0,0,0-9.65-3c-2.9.79-8.15,3.77-10.86,14.93-2.06,9.07.1,20,4.93,24.79.22.22.44.43.67.63-1.37,1.8-2.9,3.83-4.56,6-13.22,17.61-37.82,50.39-51.3,50.4a3.65,3.65,0,0,1-3.31-1.46c-5.19-7.13,5.13-37,12.66-58.72,3.15-9.1,6.12-17.69,8-24.38.66-2.65-.83-5.31-3.7-6.62-3.08-1.41-6.39-.74-8.05,1.65-4.18,6.2-10.95,20.14-16.36,35.76-7.63,4.33-18,7.71-27,7.46-5.87-.16-10.34-1.82-13.29-4.94.23-.54.52-1.19.84-1.93,6.62-15.09,12.92-31.52,9.45-39a6.34,6.34,0,0,0-4.1-3.59c-4.4-1.2-8.91,1-12.72,6.19-7.16,9.78-10,27.79-3,39.52-15,33.67-32.61,58.61-40.25,56.91-2.38-.52-4.13-4-4.94-9.87-2.77-20,5.76-57.86,12.23-61.32a.9.9,0,0,1,1.21.2,3.7,3.7,0,0,0,3.74,1,4,4,0,0,0,2.46-3.11,4.88,4.88,0,0,0-1.67-4.71A11.32,11.32,0,0,0,284,835.36c-4.72,1.87-9.37,6.67-13.26,13.23-1.93,2.44-4.3,5.61-7,9.26-13.06,17.5-37.37,50.07-51.11,50.08a1.81,1.81,0,0,1-1.61-.87c-5.36-6.95-.67-41.93,10.66-80.85,0,.18.07.37.11.56l.07.25.14.22c1.15,1.72,3.44,2.78,5.33,1.63,17.54-7.21,48.54-28.45,70.22-51.63h0c26.88-28.93,26.84-52.31,17.83-64.58-6.66-8.74-17.8-12.62-29.75-10.38-46.47,7.82-73.61,91.18-80.81,116.53-12.19,41.83-14.63,78.37-6.22,93.1,2.23,3.9,5.19,6.35,8.81,7.27a12.28,12.28,0,0,0,3,.35c15,0,35.63-24.53,51.22-44.94-1.82,10.92-1.33,21.58,1.42,30.11,3.25,10.07,9.34,16.38,17.62,18.26a9.37,9.37,0,0,0,2.12.23c8.17,0,18.3-9.72,30.14-29a307.41,307.41,0,0,0,15.78-29.56c5,3.78,11.81,5.58,19.91,5.23A61.11,61.11,0,0,0,369,865.11c-4.59,16.14-6.9,32.59-2.89,43.23,2.17,5.76,6,9.4,11.51,10.84a12.3,12.3,0,0,0,3,.35c17.93,0,44.12-35,60.1-56.31,2.32-3.09,4.38-5.83,6.13-8.1,4.65.62,9.24-1,12.73-2.2a26.05,26.05,0,0,1,4.24-1.25c1.22-.15,2.12,0,2.4.36.78,1-.64,4.56-1.31,6.22s-1.84,3.94-3.15,6.62c-7.47,15.26-21.35,43.67-14.26,56.16,2.07,3.64,5.68,5.69,10.74,6.12h.15c13.55-.24,33.48-20.84,49.32-40.28a22.55,22.55,0,0,0,3.52,9.64c2.51,3.64,7.38,7.79,16.35,6.86,10.14-1.16,22.87-12.24,38.8-33.81-3.75,14.9-6,32-.28,42a15.42,15.42,0,0,0,10,7.64,12.61,12.61,0,0,0,3,.36c18.19,0,44.66-35.74,60.83-57.56,2.63-3.56,4.91-6.63,6.75-9l.07-.09A3.85,3.85,0,0,0,646.1,847.51ZM445,842.2c-3.61-10.43-1-18.56,1.83-21.45a2.46,2.46,0,0,1,1.42-.89h.08a2.79,2.79,0,0,1,.88,1.55C450.26,824.74,449.88,833,445,842.2Zm-117.28,4.47c-1.44-8.28,1.09-17.44,4.52-23.17a10.77,10.77,0,0,1,3-3.59C335.73,821.92,334.46,830.21,327.74,846.67ZM223.19,821.19c13.6-44.06,35.93-98.63,65.12-108.47a23.67,23.67,0,0,1,8-1.48,15.22,15.22,0,0,1,12.58,5.89c6.49,8.43,5.76,27.42-17.65,53.16-20.58,22.39-51.18,44.57-66.93,51.3a3.64,3.64,0,0,0-1.46.8Z"/><path class="cls-1" d="M876.23,796.64c11.27-17.71,18-36.78,18.91-53.69.88-16.19-3.69-28.87-12.55-34.78-5.82-3.87-12.61-5-20.18-3.35-33.92,7.39-76.08,68.61-92.74,94.79,3.53-31.56,4.35-54.79,4.53-61.51,0-3.17-2.43-5.71-5.89-6.16a6.34,6.34,0,0,0-7.25,4.64l0,.11c-.86,4.47-2.36,15.79-4.43,31.47-2.47,18.67-5.54,41.83-9,64.45-.87.09-1.71.16-2.58.22-1.23.1-2.5.2-3.85.39C719.59,836,714.8,844,714.59,850.11c-.41,9.57,11.47,12.55,17.67,13.66-9.39,17.39-43.55,83.15-34.38,102.2a9.19,9.19,0,0,0,7,5.31,19.17,19.17,0,0,0,3.34.29c26.69,0,43-57,52.14-106.37a142,142,0,0,0,48.14-11.86c30.39,14.86,24.17,40.83,18.15,65.95-4.51,18.85-8.78,36.66,4.76,46.43a13.43,13.43,0,0,0,8.26,2.66c13.66,0,30.5-16.77,34.43-20.89a3.75,3.75,0,0,0,1.28-3.67,4.43,4.43,0,0,0-3-3.23,3.72,3.72,0,0,0-3.76,1c-11.47,11.47-26,22.11-32.41,17.58-6.76-4.89-3.13-17.41,1.08-31.91,7.17-24.74,16.94-58.42-18.73-78.54C842.59,836.15,863,817.74,876.23,796.64ZM743,865.14c-4.69,24.19-11.6,49.12-19,68.66-11.38,29.84-17.25,30.05-17.79,30a1.73,1.73,0,0,1-1.33-1c-1.33-2.64-1.65-11.78,11.16-43.28,7.79-19.16,18-40.55,25.16-54.53.38,0,.77.08,1.18.13ZM722.5,850.63c.28-5.48,13.2-8.71,19.73-9.14l.19,0a26.13,26.13,0,0,1,2.77-.36c-2.11,3.39-5,8.36-8.78,15C729.54,855.3,722.5,853,722.5,850.63Zm135.35-59c-14.91,23.53-32.16,41-51.28,52a135.69,135.69,0,0,0-41.22-10.26c.66-4.59,1.33-9.27,2-13.59a592.21,592.21,0,0,1,44-63.16c22.12-27.29,40.34-42.58,52.71-44.22a12.46,12.46,0,0,1,11,3.41C883.6,724,880.42,752.71,857.85,791.64Zm-61.08,56.79a110.31,110.31,0,0,1-35.09,8.77c.92-5.25,1.84-10.62,2.52-16A133.36,133.36,0,0,1,796.77,848.43Z"/><path class="cls-1" d="M928.61,794.48a11.05,11.05,0,0,0,2.09-.19l.13,0a8,8,0,0,0,5.38-4.34,7.4,7.4,0,0,0-.29-6.46c-2.19-4.39-7.79-7-12.25-5.7a7.34,7.34,0,0,0-5.28,3.88,7.69,7.69,0,0,0,.11,6.88C920.11,792.49,924.54,794.48,928.61,794.48Z"/><path class="cls-1" d="M1533.85,847.41a4.17,4.17,0,0,0-2.68-.81,3.58,3.58,0,0,0-2.68,1.51c-9.8,12.33-29.46,37.07-50,54.26,4-11.5,3.73-23.29-.6-38.24-1.19-4.43-2.61-8.46-4-12.36-2.91-8.29-5.66-16.12-5.41-25.7.25-6.66,2.47-12.28,5.66-14.3a5.53,5.53,0,0,1,5.44-.22,3,3,0,0,1,1.6,2.23c.68,3-1.23,7.51-5.11,12a3.7,3.7,0,0,0,.11,5.37,4,4,0,0,0,5.82.11l.07-.08c5.61-6.43,8.16-13,7.2-18.59a11.42,11.42,0,0,0-5.64-8.19c-4.06-2.57-10.53-2.48-16.09.21-4.5,2.18-12.27,7.95-13.75,22-.72,7.75.6,14.86,2.53,22-1.86,2.36-4.13,5.39-6.74,8.86-13.22,17.61-37.82,50.39-51.27,50.39a2.31,2.31,0,0,1-2-1.07c-6.47-8.6,4-56.21,10.79-81.05a4.25,4.25,0,0,0,.37,1.18,3.66,3.66,0,0,0,2.26,2.17,3.38,3.38,0,0,0,2.83-.27c17.53-7.21,48.54-28.46,70.22-51.64h0c26.89-28.93,26.85-52.31,17.86-64.54-6.22-8.7-17.63-12.7-29.77-10.42-46.5,7.89-73.61,91.2-80.82,116.54a280.74,280.74,0,0,0-9,43.9c-.63.69-1.46,1.62-2.45,2.75-6.87,7.73-27.75,31.28-34.66,27.54-2-1.08-2.69-4.65-1.9-9.79,1-6.76,4.5-15.23,9-22.11,5.11-7.75,10.87-12.59,16.29-13.63,2.72-.68,3,.23,3.15.61.44,1.12-.24,4.29-3.65,9.6a4,4,0,0,0,1.12,5.68,4,4,0,0,0,5.55-1c1.5-2.26,6.29-10.07,4.74-15.89-.49-2.39-2.7-7.74-12.48-7.19-19.47.91-33.64,19.81-37.47,35.64-16.22,20.7-36.39,42.89-45.81,42.89a4.63,4.63,0,0,1-.65,0c-.4,0-.47-.16-.51-.24-1.28-2.16,3-11.9,6.71-20.49,8.34-19.17,18.73-43,6.69-52.9-4.61-3.79-10.2-2-15.14-.5a42.56,42.56,0,0,1-5.65,1.49,52.62,52.62,0,0,0,4.66-10.71c2.94-9.5.3-16.7-3.14-20.27a9.7,9.7,0,0,0-9.65-3c-2.89.79-8.15,3.77-10.86,14.93-2.06,9.08.11,20,4.93,24.79l.45.43c-1.47,1.93-3.12,4.14-4.93,6.56-13.06,17.5-37.38,50.07-51.06,50.07a3.6,3.6,0,0,1-3.19-1.48c-5.16-7.23,5.12-37.1,12.62-58.91,3.1-9,6-17.51,7.84-24,.85-2.53-.37-5.1-3.1-6.57s-6.56-1.54-8.56,1l-.09.13a137.16,137.16,0,0,0-11.4,23.51c-11.17,17.23-34.26,52.79-48.54,53.89-3.66.21-5.59-1.68-5.9-5.76-1-13.68,17.51-45.45,38.13-47.47,1.21,0,3.88,0,4.66.89a1,1,0,0,1,.19.84v.17a4,4,0,0,0,3.58,4.14c2.11.43,4.05-1,4.66-3.4l0-.2a7.67,7.67,0,0,0-2.11-6.33c-3-3.17-8.75-4.29-13-4-28.35.81-41,19.72-45.07,27.81-.72,1.41-1.35,2.85-1.92,4.29-9.21,11.08-21.51,25.4-31.72,34.33-10.43,9.56-13.78,9.13-14.47,8.85-1.14-.89-1.25-8.19,11.17-32,7.61-15.54,19.1-39,5-46.52-17.17-9-44.1,32-55.13,50.54a408.36,408.36,0,0,1,11.66-55.33,4.51,4.51,0,0,0,.26.66,3.61,3.61,0,0,0,2,2.06,4,4,0,0,0,3.37-.14c17.09-7.17,48.65-28.94,69.91-51.66,26.89-28.93,26.85-52.31,17.86-64.54-6.22-8.7-17.64-12.69-29.77-10.42-46.5,7.89-73.62,91.2-80.82,116.54a344.18,344.18,0,0,0-8.55,39.81,260.87,260.87,0,0,1-29.66,27.4c-18.81,15-35.06,23.89-44.6,24.54-3.49.24-5.55-1-6.49-4-4.11-13,15.42-51.78,30.73-61.1,5.62-3.41,8-1.05,8.77-.27,1,1,1.72,2.79-.34,8.58-2.76,6.27-7.11,12-8.71,12.79a4.12,4.12,0,0,0-2.22,2.6,3.61,3.61,0,0,0,.46,2.89,4.07,4.07,0,0,0,2.55,2.14,3.6,3.6,0,0,0,2.92-.47c3.8-2.28,9.42-8.74,12.31-16.18,3.84-9.13,1.57-14.52-1-17.46-5.55-5.92-13.81-6.7-23.23-2.22a57.19,57.19,0,0,0-13.82,9.1,3.44,3.44,0,0,0-1.47,1.18l-.52.66a67.75,67.75,0,0,0-12.31,16.25c-13.74,18.05-33.89,42.86-45.62,42.87a3.65,3.65,0,0,1-3.3-1.46c-5.2-7.13,5.12-37,12.66-58.72,3.14-9.1,6.12-17.69,8-24.38.66-2.65-.83-5.31-3.71-6.62-3.08-1.41-6.38-.74-8.05,1.65-9.32,13.84-31.61,66.28-22.69,89.94,2.17,5.76,6,9.4,11.5,10.84a12.42,12.42,0,0,0,3,.35c11.65,0,26.77-14.74,40.32-30.92a41.17,41.17,0,0,0,.76,16.15c2.47,8.9,8.59,13.84,17,13.84a23.34,23.34,0,0,0,2.48-.14c18.94-2,51.32-25.12,72.54-46-1.43,13.06-2.24,29.2.16,41.66.27,2.86,2.68,4.78,6,4.78h.32c3.08-.12,5.32-1.85,5.39-4.13,1.43-11.15,11.09-30.68,24.65-49.82,12.85-18.66,24.42-29.27,29.51-27a2.1,2.1,0,0,1,1.35,1.33c1.22,3.53-3.91,12.49-8.86,21.16-2.88,5-5.84,10.21-8.36,15.46-6.57,13.43-8.45,28.27-4.59,36.09a9.14,9.14,0,0,0,6.36,5.28c6,1.4,13.08-1.85,22.83-10.52,7.36-6.47,15.47-15.26,23.14-24,.07,5.3,1.33,10.1,3.84,13.74s7.38,7.79,16.35,6.86c10.14-1.16,22.87-12.24,38.8-33.81-3.75,14.9-6,32-.29,42a15.44,15.44,0,0,0,10,7.64,12.59,12.59,0,0,0,3,.36c18.2,0,44.67-35.73,60.83-57.55,1.94-2.61,3.67-5,5.19-7,4.84.84,9.67-.84,13.3-2.11a26.34,26.34,0,0,1,4.24-1.25c1.22-.15,2.12,0,2.41.36.77,1-.65,4.56-1.32,6.22s-1.84,3.93-3.15,6.61c-7.46,15.27-21.35,43.68-14.26,56.17,2.07,3.64,5.68,5.69,10.74,6.12h.15c13.17-.23,32.39-19.72,48-38.68,1.59,7,6.4,11.62,13.66,12.63,13.93,1.79,28.61-14.05,38-24.65-2.2,32,5.86,41,13.2,42.73a12.44,12.44,0,0,0,3,.36c18.06,0,44.2-35.46,60.16-57.11l3.21-4.35c2.68,9.06,5.28,18.48,4.93,29.43-.42,25.67-9.43,34.91-17,35h-.15c-5.16,0-9.38-4.27-9.64-9.82a9.24,9.24,0,0,1,2.34-6.93,9.4,9.4,0,0,1,7.1-2.79,4.14,4.14,0,1,0,0-8.28c-12.36,0-16.44,7.76-17.62,11.1a17.83,17.83,0,0,0,17.29,23.92c5.66,0,12.11-2.08,18.86-6.21,19.78-12.19,43.27-35.8,69.87-70.22A4.18,4.18,0,0,0,1533.85,847.41Zm-267.32-5.21c-3.61-10.43-1-18.57,1.82-21.45a2.46,2.46,0,0,1,1.42-.89h.08a2.79,2.79,0,0,1,.88,1.55C1271.76,824.74,1271.39,833,1266.53,842.2Zm141.52-19.59.41-1.42c13.6-44.06,35.93-98.63,65.11-108.47a23.73,23.73,0,0,1,8-1.48,15.23,15.23,0,0,1,12.58,5.89c6.6,8.57,5.94,27.64-17.65,53.16-20.6,22.41-51.25,44.61-67,51.32A3.57,3.57,0,0,0,1408.05,822.61Zm-346.75-1.44c24.81-83.74,51.19-103.89,64.72-108.45a25.64,25.64,0,0,1,8.31-1.49c5.27,0,9.73,2,12.63,5.87,9.5,13-2.2,36.08-18,53.19-20.6,22.41-51.25,44.61-67,51.32a3.43,3.43,0,0,0-1,.54C1061.1,821.82,1061.2,821.49,1061.3,821.17Z"/></g></g></svg>