<svg xmlns="http://www.w3.org/2000/svg" viewBox="0 0 655.54 642.32"><defs><style>.cls-1{fill:#fff;}</style></defs><title>logo-simbolo</title><g id="Capa_2" data-name="Capa 2"><g id="Capa_1-2" data-name="Capa 1"><path class="cls-1" d="M651.89,455.55c-3-1.92-7.52-2.95-13-3h-5c-4.88,0-9,1.19-11.56,3.35a9.63,9.63,0,0,0-3.48,8.07l.47,3.67c.27,2.18.77,6.21,1.3,11.15l.58,5.78c0,.16,0,.37.06,1l.13,3.89c.24,7.9.21,15.56-.1,22.77a208.26,208.26,0,0,1-2.42,24.25,134.11,134.11,0,0,1-6.23,24.23,83.45,83.45,0,0,1-11.67,21.76,64.45,64.45,0,0,1-18.06,16.25,71.6,71.6,0,0,1-11.11,5.43,83.06,83.06,0,0,1-12.13,3.62,106.13,106.13,0,0,1-12.64,2l-1.42.12c-1.68.14-3.41.28-5.29.33l-.86,0c-.8,0-1.62.07-2.35.07h-2.76a102.31,102.31,0,0,1-44.71-11.09A137.13,137.13,0,0,1,459,578c-4.31-4-8.43-8.13-12.29-12.38-4.5-5-8.91-10.47-13.13-16.17a295,295,0,0,1-25.67-42.12,406,406,0,0,1-21.47-51.25,491.65,491.65,0,0,1-15.25-54.56,515,515,0,0,1-8.64-51.86c-.29-2.44-.54-4.85-.78-7.23a12.75,12.75,0,0,1,11.16-14c11.36-1.45,22.57-3.16,33.33-5.09a567.65,567.65,0,0,0,79.54-19.92c25.82-8.63,48.55-18.77,67.57-30.14,5.28-3.17,9.81-6.09,13.85-8.95,1.76-1.2,3.45-2.46,4.95-3.57l1.57-1.16c.55-.42,1.16-.9,1.77-1.39l1.2-.94c1-.77,1.93-1.51,2.78-2.24a151.68,151.68,0,0,0,19.71-19.33l2.16-2.6,1.12-1.45.8-1c1.07-1.35,2.08-2.8,3.14-4.34l.91-1.3c.38-.54.74-1.12,1.12-1.72s.53-.86.79-1.25l.14-.22c.58-.92,1.13-1.78,1.58-2.61l2-3.49,1.81-3.58a95.42,95.42,0,0,0,9.34-32.45c0-.32.07-.86.13-1.41.11-1.16.2-2.14.24-3.05l.17-4.71-.1-5.82c0-.39,0-.79,0-1.19l-.19-2.38c0-.45-.09-1-.14-1.65-.08-1.12-.16-2.09-.28-2.93l-.76-5.3c-.14-.84-.37-1.92-.61-3.06l-.36-1.72c-.28-1.52-.7-3-1.15-4.66a100.16,100.16,0,0,0-7.31-19.14,116.66,116.66,0,0,0-11.24-17.92,131.29,131.29,0,0,0-14.23-15.85A176.4,176.4,0,0,0,571.76,75,243.43,243.43,0,0,0,535,52.94c-22.62-11.13-48.52-20.56-79.17-28.82A742.46,742.46,0,0,0,380,8.24c-4.65-.74-9.33-1.55-13.86-2.33l-.2,0c-6.36-1.1-13-2.24-19.41-3.18l-2.3-.34C321.53-1,305.15-3.38,293.73,14.19c-1.07,1.63-1.28,2.31-1.29,6.37-.17,40-.6,93.58-1.28,159.4a12.84,12.84,0,0,1-24.53,5.18l-.05-.11a257.87,257.87,0,0,0-20.92-37.3,265.7,265.7,0,0,0-27.72-34.41A288.93,288.93,0,0,0,184.71,83.7a320.1,320.1,0,0,0-36.63-24L143.25,57l-4.67-2.46c-1.49-.8-3-1.6-4.62-2.37l-4.91-2.45c-5.12-2.44-12-5.64-18.84-8.49-6.5-2.72-12.82-5.18-18.81-7.32C85.77,31.88,79.75,29.87,73,27.76c-11.37-3.51-23.11-6.6-34.87-9.19l-.15,0-3.14-.8-6-1.59C24.09,15,20.07,14,17.22,13.34l-4-.89c-3.87-.45-6.8.44-9,2.72a13.25,13.25,0,0,0-2.71,4.55A21.81,21.81,0,0,0,.26,26.54L.05,31.48A37.12,37.12,0,0,0,.5,39.34a17.58,17.58,0,0,0,1.8,5.4,7.61,7.61,0,0,0,5.93,4.12c1.73.07,7,.31,14.55,1l7.91.82.94.16c11,1.94,22,4.35,32.63,7.18a349.93,349.93,0,0,1,70.31,26.67,288.49,288.49,0,0,1,34.22,20.61A259.6,259.6,0,0,1,199.9,131a234.24,234.24,0,0,1,46.25,63.63A240.54,240.54,0,0,1,259.92,229a284,284,0,0,1,8.26,33.11c1.65,9.17,2.92,18.53,3.78,27.84a12.84,12.84,0,0,1-13,14l-52.87-.77L185,301.6c-4.9.17-10.62,3.12-10.46,16l.06,4.88c.07,5.88,1.58,15.73,10.84,15.91l22.29-2,51.21-1.45a12.85,12.85,0,0,1,13.15,14l0,.18c-.06.69-.12,1.35-.18,2-.09.87-.15,1.59-.22,2.32-.16,1.82-.31,3.6-.6,5.51l-.95,7.29c-.15,1.34-.38,2.7-.64,4.2l-.64,3.81a257.61,257.61,0,0,1-21.1,67.89,235.64,235.64,0,0,1-19.48,33.64,233.09,233.09,0,0,1-25.67,30.67c-1.63,1.71-3.41,3.39-5.14,5l-.3.28-1.71,1.62c-.84.83-1.74,1.61-2.6,2.37l-1.21,1.07-1.2,1.07-.17.15c-.85.76-1.69,1.51-2.57,2.24l-2.47,2.05c-1.75,1.47-3.53,3-5.45,4.4l-3.87,3-4,2.92a279.85,279.85,0,0,1-34,21.1,345.16,345.16,0,0,1-70,27.42c-5.78,1.59-11.38,3-16.64,4.19s-10.53,2.31-15.88,3.3l-.87.16c-1,.19-2,.38-3,.55l-3.15.49-5.43.53c-7.82.67-13.21.91-14.65,1a7.62,7.62,0,0,0-5.94,4.14c-1.72,3.12-2.5,7.69-2.24,13.21l.21,4.9c.23,4.88,1.65,8.94,4,11.43,2.17,2.28,5.08,3.18,8.9,2.74l4-.9c2.85-.64,6.89-1.62,11.68-2.84l7.79-2,5.49-1.22c5.66-1.29,11.37-2.72,17-4.26s11.66-3.3,17.79-5.26a379.59,379.59,0,0,0,74.75-32.75A309.82,309.82,0,0,0,188,554.07l4.41-3.49,4.27-3.59c1.95-1.59,3.86-3.31,5.71-5,.93-.84,1.84-1.66,2.77-2.47s1.63-1.53,2.48-2.34c.5-.48,1-1,1.49-1.41s.87-.84,1.37-1.31c.92-.87,1.7-1.61,2.42-2.36l2.19-2.23C217,528,219,526,220.71,524A260.13,260.13,0,0,0,248,489.12a262.6,262.6,0,0,0,20.27-37.64c.3-.69.59-1.38.88-2.07l19.37-45.72-.67,48.83c-.45,32.85-1,171.14-1,177a12.81,12.81,0,0,0,12.78,12.79h44.95a12.8,12.8,0,0,0,12.78-12.78l-.6-118.85A12.83,12.83,0,0,1,381,504.78c3,5.85,5.35,10.3,7,13.22a338.22,338.22,0,0,0,29.17,44c4.73,6,9.68,11.8,14.71,17.22,4.29,4.57,8.77,9,13.69,13.52A176.12,176.12,0,0,0,480,617.58a131.66,131.66,0,0,0,24.5,10.23,119.71,119.71,0,0,0,28.72,5.1l4,.17c.73,0,1.44,0,2.16,0H541c2.15,0,4.37-.05,6.71-.14l.89,0a131.37,131.37,0,0,0,15.34-1.66,110.52,110.52,0,0,0,15.77-3.84,99.34,99.34,0,0,0,15.44-6.56,90.73,90.73,0,0,0,26.44-21.24,111.19,111.19,0,0,0,17.26-28,162.14,162.14,0,0,0,9.38-29.2,238.13,238.13,0,0,0,4.43-27.7c.83-8.05,1.36-16.25,1.63-25.05l.11-4.38c0-.48,0-.68,0-.83l.39-6.29c.27-4.62.44-8.38.57-11.16l.19-4.51C655.33,459.14,654.23,457.06,651.89,455.55ZM337.34,608.79a14.78,14.78,0,1,1-29.56,0V29.37a14.78,14.78,0,1,1,29.56,0Zm21.3-310.7-.5-.5a12.85,12.85,0,0,1-4.09-9.25c-.33-27.9-.63-55.37-.9-81.84L352.2,98.79l-.27-47.61a12.83,12.83,0,0,1,14.16-12.85q4.73.49,9.56,1.06A702.48,702.48,0,0,1,449,51.65c29.13,6.61,53.71,14.5,75.14,24.12a215.68,215.68,0,0,1,33.67,18.61,151.19,151.19,0,0,1,14.54,11.41,108,108,0,0,1,12.32,12.85,83.85,83.85,0,0,1,15.63,29l.07.21a39,39,0,0,1,1.06,4c0,.18.13.52.21.87.19.77.41,1.64.59,2.61l.59,3.51c.19,1,.28,2,.36,2.81,0,.36.06.65.1.94l.19,1.75c0,.37.07.69.08,1l.21,4.67c0,.26,0,.51,0,.77l0,3.11c0,.9-.07,1.7-.14,2.51,0,.33-.05.67-.07,1-1.25,16.36-7.84,31.64-19.58,45.48-9.42,11.37-24,23-41,32.61-17.6,10-39.73,19.19-64,26.46-32.53,9.79-70.47,16.8-109.72,20.27-.37,0-.74.05-1.12.05A12.89,12.89,0,0,1,358.64,298.09Z"/></g></g></svg>