<svg xmlns="http://www.w3.org/2000/svg" viewBox="0 0 320.01 320.01"><defs><style>.cls-1{fill:#fff;}</style></defs><title>logo-bullet</title><g id="Capa_2" data-name="Capa 2"><g id="Capa_1-2" data-name="Capa 1"><path class="cls-1" d="M169.17,50.26a5.09,5.09,0,0,0-5.08,5.09V254.72a5.09,5.09,0,1,0,10.17,0V55.35A5.09,5.09,0,0,0,169.17,50.26Z"/><path class="cls-1" d="M185.22,149.22a192,192,0,0,0,37.76-7,107.54,107.54,0,0,0,22-9.11,51.76,51.76,0,0,0,14.12-11.21,27.2,27.2,0,0,0,6.74-15.65c0-.12,0-.23,0-.35,0-.28,0-.55.05-.86v-1.34l-.07-1.6c0-.12,0-.23,0-.36l-.07-.6c0-.1,0-.2,0-.32,0-.28-.06-.63-.12-1l-.21-1.21c-.06-.33-.14-.63-.2-.89s-.06-.24-.07-.3a14,14,0,0,0-.37-1.37l0-.07a28.83,28.83,0,0,0-5.38-10,36.28,36.28,0,0,0-4.24-4.42,53.35,53.35,0,0,0-5-3.93,73.84,73.84,0,0,0-11.59-6.4A136.31,136.31,0,0,0,212.68,63a240.78,240.78,0,0,0-25.24-4.22l-3.29-.36a4.4,4.4,0,0,0-4.87,4.41l.09,16.39.33,37.06c.09,9.11.19,18.56.3,28.16a4.43,4.43,0,0,0,1.41,3.18l.17.17a4.44,4.44,0,0,0,3.26,1.43A2.36,2.36,0,0,0,185.22,149.22Z"/><path class="cls-1" d="M160,0A160,160,0,1,0,320,160,160,160,0,0,0,160,0ZM283.48,209.77l-.13,2.17a1.72,1.72,0,0,0,0,.28l0,1.51c-.1,3-.28,5.85-.56,8.62a82.33,82.33,0,0,1-1.53,9.53A56.17,56.17,0,0,1,278,241.93a38.52,38.52,0,0,1-5.94,9.64,31.28,31.28,0,0,1-9.1,7.31,34.59,34.59,0,0,1-5.31,2.26,38.62,38.62,0,0,1-5.43,1.32,44.2,44.2,0,0,1-5.28.57h-.3c-.81,0-1.57.06-2.31,0h-1.26l-1.39-.06a40.93,40.93,0,0,1-9.89-1.75,46,46,0,0,1-8.43-3.52,60.7,60.7,0,0,1-11.85-8.54c-1.7-1.56-3.24-3.08-4.71-4.65-1.74-1.87-3.44-3.86-5.07-5.93a116,116,0,0,1-10-15.15c-.57-1-1.38-2.53-2.41-4.55a4.42,4.42,0,0,0-8.35,2l.21,40.89a4.4,4.4,0,0,1-4.4,4.4H161.28a4.41,4.41,0,0,1-4.4-4.4c0-2,.19-49.61.35-60.91l.23-16.8-6.67,15.73-.3.71a88.48,88.48,0,0,1-16.37,25c-.6.67-1.27,1.36-1.92,2-.25.24-.49.49-.76.76s-.51.52-.83.82l-.47.45-.51.48-.86.81-1,.85c-.64.57-1.29,1.16-2,1.71l-1.47,1.23-1.52,1.2a106.64,106.64,0,0,1-12.5,8.43,130.62,130.62,0,0,1-25.72,11.27c-2.11.68-4.17,1.28-6.12,1.81s-3.89,1-5.84,1.47l-1.88.42-2.69.69c-1.64.42-3,.75-4,1l-1.4.31a3.37,3.37,0,0,1-3.06-.94,6.13,6.13,0,0,1-1.38-3.93l-.07-1.69a8.67,8.67,0,0,1,.77-4.54,2.62,2.62,0,0,1,2-1.43c.5,0,2.35-.1,5-.33l1.87-.18,1.08-.17,1-.19.3-.06c1.84-.34,3.68-.72,5.47-1.13s3.73-.9,5.72-1.44a118.83,118.83,0,0,0,24.09-9.44,96.16,96.16,0,0,0,11.69-7.26l1.37-1,1.33-1c.66-.5,1.28-1,1.88-1.52l.85-.7c.3-.25.59-.51.88-.77l.06-.06.42-.36c.12-.12.25-.23.41-.37s.61-.53.9-.82l.58-.56.11-.09c.59-.56,1.2-1.14,1.76-1.73A79.51,79.51,0,0,0,136.71,209a80.7,80.7,0,0,0,6.7-11.58A88.61,88.61,0,0,0,150.67,174l.22-1.31c.09-.51.17-1,.22-1.44l.33-2.51c.1-.66.15-1.27.21-1.9,0-.25,0-.5.07-.79l.06-.7v-.06a4.41,4.41,0,0,0-1.18-3.43,4.35,4.35,0,0,0-3.34-1.39l-17.63.5-7.66.68c-3.19-.07-3.71-3.45-3.74-5.48l0-1.68c0-4.42,1.92-5.43,3.6-5.49l7.28.55,18.19.26a4.4,4.4,0,0,0,3.31-1.41,4.45,4.45,0,0,0,1.16-3.41c-.3-3.2-.73-6.42-1.3-9.57a100.46,100.46,0,0,0-2.84-11.4,84,84,0,0,0-4.74-11.82A80.67,80.67,0,0,0,127,90.33a89.87,89.87,0,0,0-10.71-8.87,99.46,99.46,0,0,0-11.78-7.09,120.62,120.62,0,0,0-24.19-9.18c-3.67-1-7.44-1.8-11.23-2.47l-.32,0L66,62.39c-2.59-.23-4.41-.31-5-.33a2.63,2.63,0,0,1-2-1.42,6.16,6.16,0,0,1-.62-1.86,12.69,12.69,0,0,1-.15-2.7l.07-1.7A7.33,7.33,0,0,1,58.72,52a4.6,4.6,0,0,1,.93-1.57,3.47,3.47,0,0,1,3.09-.93l1.37.3c1,.22,2.36.56,4,1l2.07.55,1.08.27.05,0c4,.88,8.09,2,12,3.16,2.33.72,4.4,1.41,6.34,2.12s4.24,1.58,6.47,2.52,4.72,2.08,6.48,2.92l1.69.84c.55.27,1.08.54,1.59.82l1.61.84,1.66.93a109.84,109.84,0,0,1,12.61,8.26,98.6,98.6,0,0,1,11.43,10.19,90,90,0,0,1,9.54,11.84,89,89,0,0,1,7.2,12.83l0,0a4.42,4.42,0,0,0,8.44-1.78c.23-22.65.38-41.1.44-54.85,0-1.4.07-1.63.44-2.19,3.93-6.05,9.57-5.22,17.37-4.08l.79.12c2.22.32,4.49.72,6.68,1.1h.06l4.77.8A256.11,256.11,0,0,1,215,53.55a149.58,149.58,0,0,1,27.24,9.91,83.91,83.91,0,0,1,12.65,7.6,61.75,61.75,0,0,1,5.66,4.76,45.28,45.28,0,0,1,4.9,5.46,40.52,40.52,0,0,1,3.86,6.16A34.39,34.39,0,0,1,271.86,94c.15.56.3,1.08.4,1.6l.12.6c.08.39.16.76.21,1l.26,1.82c0,.29.07.62.1,1,0,.21,0,.41.05.57l.06.82c0,.13,0,.27,0,.41l0,2-.06,1.62c0,.31-.05.65-.08,1,0,.19,0,.37-.05.49a33,33,0,0,1-3.21,11.16l-.62,1.23-.68,1.2c-.16.29-.35.58-.55.9l-.05.08-.27.43c-.13.2-.25.4-.38.59l-.32.45c-.36.52-.71,1-1.08,1.49l-.27.36-.39.5-.74.89a52.31,52.31,0,0,1-6.78,6.65c-.3.26-.62.51-1,.78l-.41.32-.61.48-.54.4c-.52.38-1.1.81-1.7,1.22-1.4,1-3,2-4.77,3.08a118.09,118.09,0,0,1-23.25,10.37A195.39,195.39,0,0,1,198,156.51c-3.7.66-7.56,1.25-11.47,1.75a4.39,4.39,0,0,0-3.84,4.81q.12,1.23.27,2.49a176.5,176.5,0,0,0,3,17.84,169.42,169.42,0,0,0,5.25,18.78,139.9,139.9,0,0,0,7.39,17.63,102,102,0,0,0,8.83,14.5c1.45,2,3,3.83,4.52,5.56,1.33,1.46,2.74,2.89,4.23,4.26a46.87,46.87,0,0,0,10.53,7.31A35.23,35.23,0,0,0,242,255.26H243c.25,0,.54,0,.81,0h.3c.65,0,1.24-.07,1.82-.12l.49,0a36.89,36.89,0,0,0,4.35-.68,28.35,28.35,0,0,0,4.17-1.25,24.2,24.2,0,0,0,3.82-1.87,22.08,22.08,0,0,0,6.22-5.59,28.87,28.87,0,0,0,4-7.48,45.67,45.67,0,0,0,2.15-8.34,72.37,72.37,0,0,0,.83-8.35c.1-2.48.12-5.11,0-7.83l-.05-1.34c0-.22,0-.29,0-.34l-.2-2c-.18-1.7-.36-3.09-.45-3.84l-.16-1.26a3.32,3.32,0,0,1,1.2-2.78,6.24,6.24,0,0,1,4-1.15H278a8.59,8.59,0,0,1,4.47,1,2.76,2.76,0,0,1,1.26,2.39l-.07,1.55C283.63,206.89,283.58,208.19,283.48,209.77Z"/></g></g></svg>