<svg xmlns="http://www.w3.org/2000/svg" viewBox="0 0 1535.81 269.92"><defs><style>.cls-1{fill:#fff;}</style></defs><title>logo-typo</title><g id="Capa_2" data-name="Capa 2"><g id="Capa_1-2" data-name="Capa 1"><path class="cls-1" d="M194.15,50.43c3.64-13.34-1.09-24.12-13-29.59-10.73-4.94-26.22-5-41.42-.22C123,25.92,108.62,36.33,99.39,50c-10,14.87-12.65,30.75-7.29,43.89-28.72,5.9-58.41,12.24-90.46,34.6A3.89,3.89,0,0,0,.81,134a3.94,3.94,0,0,0,5.59,1c28.82-20.33,55.47-26.8,89.81-33.54,6.25,8.34,16.13,14,28.3,16.33-27.49,10-49,23-63.93,38.62C46.75,170.91,38.77,187.23,36.87,205c-1.66,16.64,4.7,32.55,17,42.56a48.12,48.12,0,0,0,30.68,10.58,59.83,59.83,0,0,0,18-2.87c23.62-7.21,48.37-33.08,56.35-58.9C164,180,162,165.46,153.13,154.4A29.35,29.35,0,0,0,122,144c-11.24,3.14-18.79,12.24-20.22,24.35v.18A4.4,4.4,0,0,0,106,173a3.81,3.81,0,0,0,4.1-3.54c.92-8.66,6.2-15.21,14.1-17.52A21.5,21.5,0,0,1,147,159.26c8.77,11.3,7,25.1,4,34.68-7.38,23.47-29.7,47-50.81,53.54-12.91,4.09-24.54,2.56-32.74-4.32-9.37-7.85-13.51-21.64-11.36-37.83,3.17-24,19.8-67.16,95.59-87.46a4.13,4.13,0,0,0,2.78-5.12,4.2,4.2,0,0,0-5-3.06c-27.05,3.73-37.54-4.39-41.58-10.69C123,95.76,136,92.46,149.1,87.28,181.14,74.72,191.28,60.32,194.15,50.43Zm-7.79-2.32c-4.59,15.48-27.18,26.36-40.24,31.47-14.1,5.57-28.35,8.94-41.71,11.71C102.62,82.1,106,70.36,114,58c13-19.33,37.76-31,55.06-31a26.16,26.16,0,0,1,11,2.09C186.77,32.32,189,38.87,186.36,48.11Z"/><path class="cls-1" d="M410.13,92.83a12,12,0,0,0,2.09-.19l.12,0a8,8,0,0,0,5.39-4.33,7.47,7.47,0,0,0-.29-6.46c-2.2-4.39-7.79-7-12.26-5.7A7.34,7.34,0,0,0,399.91,80a7.72,7.72,0,0,0,.1,6.88C401.63,90.84,406.06,92.83,410.13,92.83Z"/><path class="cls-1" d="M646.1,145.85a3.88,3.88,0,0,0-3-1,4,4,0,0,0-2.89,1.65c-2,2.5-4.47,5.84-7.36,9.7-13.06,17.5-37.37,50.07-51.06,50.07a3.6,3.6,0,0,1-3.19-1.48c-5.16-7.23,5.12-37.11,12.63-58.92,3.1-9,6-17.5,7.83-24,.85-2.53-.37-5.11-3.1-6.57s-6.56-1.54-8.56,1l-.09.14a136.17,136.17,0,0,0-11.39,23.51c-11.18,17.23-34.26,52.79-48.55,53.89-3.65.2-5.59-1.68-5.89-5.76-1-13.68,17.5-45.45,38.12-47.47,1.22,0,3.88,0,4.66.89a1,1,0,0,1,.19.84v.17a4,4,0,0,0,3.58,4.14c2.11.42,4.06-1,4.66-3.4l0-.2a7.66,7.66,0,0,0-2.11-6.33c-3-3.17-8.75-4.3-13-4-28.35.81-41,19.72-45.07,27.81A48.93,48.93,0,0,0,508.61,171c-16.49,21.31-37.81,45.16-47.57,45.16a4.63,4.63,0,0,1-.65,0c-.4,0-.47-.16-.51-.24-1.28-2.16,3-11.9,6.7-20.5,8.35-19.16,18.73-43,6.7-52.89-4.61-3.79-10.21-2-15.14-.5a42.56,42.56,0,0,1-5.65,1.49,52.62,52.62,0,0,0,4.66-10.71c2.94-9.5.3-16.71-3.14-20.27a9.7,9.7,0,0,0-9.65-3c-2.9.79-8.15,3.77-10.86,14.93-2.06,9.07.1,20,4.93,24.79.22.22.44.43.67.63-1.37,1.8-2.9,3.83-4.56,6-13.22,17.61-37.82,50.39-51.3,50.39a3.64,3.64,0,0,1-3.31-1.45c-5.19-7.13,5.13-36.95,12.66-58.72,3.15-9.1,6.12-17.69,8-24.38.66-2.65-.83-5.31-3.7-6.62-3.08-1.41-6.39-.74-8.05,1.64-4.18,6.2-10.95,20.14-16.36,35.77-7.63,4.33-18,7.71-27,7.46-5.87-.17-10.34-1.83-13.29-4.94.23-.54.52-1.19.84-1.93,6.62-15.09,12.92-31.52,9.45-39a6.34,6.34,0,0,0-4.1-3.59c-4.4-1.2-8.91,1-12.72,6.19-7.16,9.78-10,27.79-3,39.52-15,33.67-32.61,58.61-40.25,56.91-2.38-.52-4.13-4-4.94-9.88-2.77-20,5.76-57.85,12.23-61.31a.89.89,0,0,1,1.21.2,3.7,3.7,0,0,0,3.74,1,4,4,0,0,0,2.46-3.12,4.87,4.87,0,0,0-1.67-4.7A11.32,11.32,0,0,0,284,133.71c-4.72,1.87-9.37,6.67-13.26,13.23-1.93,2.44-4.3,5.61-7,9.26-13.06,17.5-37.37,50.07-51.11,50.07a1.77,1.77,0,0,1-1.61-.86c-5.36-7-.67-41.93,10.66-80.85,0,.18.07.37.11.56l.07.25.14.21c1.15,1.73,3.44,2.78,5.33,1.64,17.54-7.21,48.54-28.45,70.22-51.63h0C324.46,46.66,324.42,23.27,315.41,11,308.75,2.27,297.61-1.61,285.66.63c-46.47,7.81-73.61,91.18-80.81,116.53-12.19,41.82-14.63,78.37-6.22,93.1,2.23,3.9,5.19,6.35,8.81,7.27a12.28,12.28,0,0,0,3,.35c15,0,35.63-24.53,51.22-44.94-1.82,10.92-1.33,21.57,1.42,30.1,3.25,10.08,9.34,16.39,17.62,18.27a9.37,9.37,0,0,0,2.12.23c8.17,0,18.3-9.73,30.14-29A308.63,308.63,0,0,0,328.72,163c5,3.78,11.81,5.58,19.91,5.23A61.11,61.11,0,0,0,369,163.46c-4.59,16.14-6.9,32.59-2.89,43.23,2.17,5.76,6,9.4,11.51,10.84a12.3,12.3,0,0,0,3,.35c17.93,0,44.12-35,60.1-56.31,2.32-3.09,4.38-5.84,6.13-8.1,4.65.62,9.24-1,12.73-2.2a26.05,26.05,0,0,1,4.24-1.25c1.22-.15,2.12,0,2.4.35.78,1-.64,4.57-1.31,6.23s-1.84,3.93-3.15,6.62c-7.47,15.26-21.35,43.67-14.26,56.16,2.07,3.64,5.68,5.69,10.74,6.11h.15c13.55-.24,33.48-20.84,49.32-40.29a22.45,22.45,0,0,0,3.52,9.64c2.51,3.65,7.38,7.8,16.35,6.87,10.14-1.16,22.87-12.24,38.8-33.81-3.75,14.9-6,32-.28,42a15.42,15.42,0,0,0,10,7.64,12.61,12.61,0,0,0,3,.36c18.19,0,44.66-35.74,60.83-57.56,2.63-3.56,4.91-6.63,6.75-9l.07-.08A3.86,3.86,0,0,0,646.1,145.85ZM445,140.55c-3.61-10.43-1-18.57,1.83-21.45a2.5,2.5,0,0,1,1.42-.9h.08a2.79,2.79,0,0,1,.88,1.55C450.26,123.09,449.88,131.37,445,140.55ZM327.74,145c-1.44-8.28,1.09-17.44,4.52-23.17a10.74,10.74,0,0,1,3-3.6C335.73,120.27,334.46,128.55,327.74,145ZM223.19,119.53c13.6-44,35.93-98.62,65.12-108.46a23.67,23.67,0,0,1,8-1.48,15.22,15.22,0,0,1,12.58,5.89c6.49,8.43,5.76,27.41-17.65,53.16C270.64,91,240,113.2,224.29,119.94a3.52,3.52,0,0,0-1.46.8Z"/><path class="cls-1" d="M876.23,95c11.27-17.71,18-36.78,18.91-53.69.88-16.2-3.69-28.87-12.55-34.78-5.82-3.87-12.61-5-20.18-3.35C828.49,10.56,786.33,71.78,769.67,98,773.2,66.4,774,43.17,774.2,36.45c0-3.18-2.43-5.71-5.89-6.17a6.34,6.34,0,0,0-7.25,4.65l0,.1c-.86,4.47-2.36,15.8-4.43,31.48-2.47,18.67-5.54,41.83-9,64.44-.87.1-1.71.16-2.58.23-1.23.1-2.5.19-3.85.39-21.59,2.81-26.38,10.75-26.59,16.89-.41,9.57,11.47,12.55,17.67,13.65-9.39,17.4-43.55,83.16-34.38,102.2a9.21,9.21,0,0,0,7,5.32,19.17,19.17,0,0,0,3.34.29c26.69,0,43-57,52.14-106.37a142.43,142.43,0,0,0,48.14-11.86c30.39,14.86,24.17,40.83,18.15,65.95-4.51,18.85-8.78,36.66,4.76,46.43a13.43,13.43,0,0,0,8.26,2.66c13.66,0,30.5-16.77,34.43-20.89a3.76,3.76,0,0,0,1.28-3.67,4.43,4.43,0,0,0-3-3.23,3.72,3.72,0,0,0-3.76,1c-11.47,11.47-26,22.1-32.41,17.58-6.76-4.9-3.13-17.41,1.08-31.91,7.17-24.74,16.94-58.42-18.73-78.54C842.59,134.5,863,116.09,876.23,95ZM743,163.49c-4.69,24.19-11.6,49.12-19,68.65-11.38,29.85-17.25,30.06-17.79,30a1.73,1.73,0,0,1-1.33-1.05c-1.33-2.65-1.65-11.78,11.16-43.28,7.79-19.16,18-40.55,25.16-54.53.38,0,.77.08,1.18.13ZM722.5,149c.28-5.48,13.2-8.71,19.73-9.15l.19,0a26.13,26.13,0,0,1,2.77-.36c-2.11,3.39-5,8.35-8.78,15C729.54,153.65,722.5,151.38,722.5,149ZM857.85,90c-14.91,23.53-32.16,41-51.28,52a135.69,135.69,0,0,0-41.22-10.26c.66-4.59,1.33-9.27,2-13.59a592.21,592.21,0,0,1,44-63.16c22.12-27.29,40.34-42.58,52.71-44.22a12.44,12.44,0,0,1,11,3.41C883.6,22.35,880.42,51.06,857.85,90Zm-61.08,56.78a110.31,110.31,0,0,1-35.09,8.78c.92-5.25,1.84-10.62,2.52-16A133.82,133.82,0,0,1,796.77,146.77Z"/><path class="cls-1" d="M928.61,92.83a11.94,11.94,0,0,0,2.09-.19l.13,0a8,8,0,0,0,5.38-4.33,7.4,7.4,0,0,0-.29-6.46c-2.19-4.39-7.79-7-12.25-5.7A7.34,7.34,0,0,0,918.39,80a7.69,7.69,0,0,0,.11,6.88C920.11,90.84,924.54,92.83,928.61,92.83Z"/><path class="cls-1" d="M1533.85,145.76a4.12,4.12,0,0,0-2.68-.81,3.58,3.58,0,0,0-2.68,1.51c-9.8,12.32-29.46,37.07-50,54.26,4-11.5,3.73-23.29-.6-38.24-1.19-4.43-2.61-8.46-4-12.36-2.91-8.29-5.66-16.13-5.41-25.7.25-6.67,2.47-12.28,5.66-14.3a5.51,5.51,0,0,1,5.44-.22,3,3,0,0,1,1.6,2.23c.68,3-1.23,7.51-5.11,12a3.7,3.7,0,0,0,.11,5.37,4,4,0,0,0,5.82.11l.07-.08c5.61-6.43,8.16-13,7.2-18.59a11.42,11.42,0,0,0-5.64-8.19c-4.06-2.57-10.53-2.48-16.09.21-4.5,2.18-12.27,7.94-13.75,22-.72,7.74.6,14.86,2.53,22-1.86,2.36-4.13,5.39-6.74,8.86-13.22,17.61-37.82,50.39-51.27,50.39a2.31,2.31,0,0,1-2-1.07c-6.47-8.61,4-56.21,10.79-81a4.25,4.25,0,0,0,.37,1.18,3.64,3.64,0,0,0,2.26,2.16,3.31,3.31,0,0,0,2.83-.27c17.53-7.21,48.54-28.45,70.22-51.63h0c26.89-28.92,26.85-52.31,17.86-64.53-6.22-8.71-17.63-12.7-29.77-10.42-46.5,7.89-73.61,91.2-80.82,116.54a280.74,280.74,0,0,0-9,43.9c-.63.69-1.46,1.62-2.45,2.74-6.87,7.74-27.75,31.29-34.66,27.55-2-1.08-2.69-4.65-1.9-9.8,1-6.75,4.5-15.22,9-22.1,5.11-7.75,10.87-12.59,16.29-13.63,2.72-.68,3,.23,3.15.61.44,1.11-.24,4.29-3.65,9.59a4.05,4.05,0,0,0,1.12,5.69,4,4,0,0,0,5.55-1c1.5-2.26,6.29-10.07,4.74-15.89-.49-2.39-2.7-7.74-12.48-7.2-19.47.92-33.64,19.82-37.47,35.65-16.22,20.7-36.39,42.89-45.81,42.89a4.63,4.63,0,0,1-.65,0c-.4,0-.47-.16-.51-.24-1.28-2.16,3-11.9,6.71-20.5,8.34-19.16,18.73-43,6.69-52.89-4.61-3.79-10.2-2-15.14-.5a42.56,42.56,0,0,1-5.65,1.49,52.62,52.62,0,0,0,4.66-10.71c2.94-9.5.3-16.71-3.14-20.27a9.7,9.7,0,0,0-9.65-3c-2.89.79-8.15,3.77-10.86,14.93-2.06,9.07.11,20,4.93,24.79.15.15.3.28.45.42-1.47,1.93-3.12,4.15-4.93,6.57-13.06,17.5-37.38,50.07-51.06,50.07a3.6,3.6,0,0,1-3.19-1.48c-5.16-7.23,5.12-37.1,12.62-58.91,3.1-9,6-17.51,7.84-24,.85-2.53-.37-5.11-3.1-6.57s-6.56-1.55-8.56,1l-.09.14a136.78,136.78,0,0,0-11.4,23.51c-11.17,17.23-34.26,52.79-48.54,53.89-3.66.21-5.59-1.68-5.9-5.76-1-13.68,17.51-45.45,38.13-47.47,1.21,0,3.88,0,4.66.89a1,1,0,0,1,.19.84v.17a4,4,0,0,0,3.58,4.14c2.11.42,4.05-1,4.66-3.4l0-.2a7.66,7.66,0,0,0-2.11-6.33c-3-3.17-8.75-4.3-13-4-28.35.81-41,19.72-45.07,27.81-.72,1.41-1.35,2.85-1.92,4.29-9.21,11.07-21.51,25.4-31.72,34.33-10.43,9.56-13.78,9.13-14.47,8.85-1.14-.89-1.25-8.19,11.17-32,7.61-15.54,19.1-39,5-46.52-17.17-9-44.1,32-55.13,50.54a408.36,408.36,0,0,1,11.66-55.33,4.51,4.51,0,0,0,.26.66,3.61,3.61,0,0,0,2,2.06,4,4,0,0,0,3.37-.14c17.09-7.17,48.65-28.94,69.91-51.67,26.89-28.92,26.85-52.31,17.86-64.53-6.22-8.71-17.64-12.69-29.77-10.42-46.5,7.89-73.62,91.2-80.82,116.54A343.73,343.73,0,0,0,1034,157a261.79,261.79,0,0,1-29.66,27.4c-18.81,15-35.06,23.89-44.6,24.54-3.49.24-5.55-1-6.49-4-4.11-13,15.42-51.78,30.73-61.1,5.62-3.42,8-1,8.77-.27,1,1,1.72,2.78-.34,8.57-2.76,6.28-7.11,12-8.71,12.8a4.12,4.12,0,0,0-2.22,2.6,3.61,3.61,0,0,0,.46,2.89,4.1,4.1,0,0,0,2.55,2.14,3.6,3.6,0,0,0,2.92-.47c3.8-2.29,9.42-8.75,12.31-16.18,3.84-9.13,1.57-14.52-1-17.46-5.55-5.92-13.81-6.71-23.23-2.22a57.19,57.19,0,0,0-13.82,9.1,3.44,3.44,0,0,0-1.47,1.18l-.52.66a67.75,67.75,0,0,0-12.31,16.25c-13.74,18.05-33.89,42.86-45.62,42.86a3.62,3.62,0,0,1-3.3-1.45c-5.2-7.13,5.12-36.95,12.66-58.72,3.14-9.1,6.12-17.69,8-24.38.66-2.65-.83-5.31-3.71-6.63-3.08-1.4-6.38-.73-8.05,1.65-9.32,13.85-31.61,66.28-22.69,90,2.17,5.76,6,9.4,11.5,10.84a12.42,12.42,0,0,0,3,.35c11.65,0,26.77-14.74,40.32-30.92a41.17,41.17,0,0,0,.76,16.15c2.47,8.9,8.59,13.84,17,13.84a23.34,23.34,0,0,0,2.48-.14c18.94-2,51.32-25.13,72.54-46-1.43,13.05-2.24,29.2.16,41.66.27,2.85,2.68,4.78,6,4.78h.32c3.08-.12,5.32-1.85,5.39-4.13,1.43-11.15,11.09-30.68,24.65-49.82,12.85-18.66,24.42-29.27,29.51-27a2.1,2.1,0,0,1,1.35,1.33c1.22,3.53-3.91,12.49-8.86,21.16-2.88,5-5.84,10.21-8.36,15.46-6.57,13.43-8.45,28.26-4.59,36.09a9.14,9.14,0,0,0,6.36,5.28c6,1.39,13.08-1.86,22.83-10.52,7.36-6.47,15.47-15.26,23.14-24,.07,5.31,1.33,10.11,3.84,13.74s7.38,7.8,16.35,6.87c10.14-1.16,22.87-12.24,38.8-33.81-3.75,14.9-6,32-.29,42a15.44,15.44,0,0,0,10,7.64,12.59,12.59,0,0,0,3,.36c18.2,0,44.67-35.74,60.83-57.56,1.94-2.6,3.67-5,5.19-7,4.84.84,9.67-.84,13.3-2.11a26.34,26.34,0,0,1,4.24-1.25c1.22-.15,2.12,0,2.41.35.77,1-.65,4.57-1.32,6.23s-1.84,3.93-3.15,6.61c-7.46,15.27-21.35,43.67-14.26,56.17,2.07,3.64,5.68,5.69,10.74,6.11h.15c13.17-.23,32.39-19.72,48-38.68,1.59,7,6.4,11.62,13.66,12.63,13.93,1.79,28.61-14,38-24.65-2.2,32,5.86,41,13.2,42.73a12.44,12.44,0,0,0,3,.35c18.06,0,44.2-35.45,60.16-57.11l3.21-4.34c2.68,9.06,5.28,18.48,4.93,29.43-.42,25.66-9.43,34.91-17,35h-.15c-5.16,0-9.38-4.27-9.64-9.82a9.22,9.22,0,0,1,2.34-6.93,9.4,9.4,0,0,1,7.1-2.79,4.15,4.15,0,1,0,0-8.29c-12.36,0-16.44,7.77-17.62,11.11a17.83,17.83,0,0,0,17.29,23.92c5.66,0,12.11-2.08,18.86-6.21,19.78-12.19,43.27-35.8,69.87-70.22A4.18,4.18,0,0,0,1533.85,145.76Zm-267.32-5.21c-3.61-10.43-1-18.57,1.82-21.45a2.44,2.44,0,0,1,1.42-.9h.08a2.79,2.79,0,0,1,.88,1.55C1271.76,123.09,1271.39,131.37,1266.53,140.55ZM1408.05,121c.14-.49.28-1,.41-1.43,13.6-44,35.93-98.62,65.11-108.46a23.73,23.73,0,0,1,8-1.48,15.23,15.23,0,0,1,12.58,5.89c6.6,8.57,5.94,27.64-17.65,53.16-20.6,22.41-51.25,44.61-67,51.32A3.48,3.48,0,0,0,1408.05,121Zm-346.75-1.44c24.81-83.74,51.19-103.89,64.72-108.45a25.67,25.67,0,0,1,8.31-1.5c5.27,0,9.73,2,12.63,5.88,9.5,13-2.2,36.08-18,53.19-20.6,22.41-51.25,44.61-67,51.32a3.4,3.4,0,0,0-1,.53C1061.1,120.17,1061.2,119.84,1061.3,119.52Z"/></g></g></svg>