<svg xmlns="http://www.w3.org/2000/svg" viewBox="0 0 1923.08 320.01"><defs><style>.cls-1{fill:#fff;}</style></defs><title>logo-horiz</title><g id="Capa_2" data-name="Capa 2"><g id="Capa_1-2" data-name="Capa 1"><path class="cls-1" d="M169.17,50.26a5.09,5.09,0,0,0-5.08,5.09V254.72a5.09,5.09,0,1,0,10.17,0V55.35A5.09,5.09,0,0,0,169.17,50.26Z"/><path class="cls-1" d="M185.22,149.22a192,192,0,0,0,37.76-7,107.54,107.54,0,0,0,22-9.11,51.76,51.76,0,0,0,14.12-11.21,27.2,27.2,0,0,0,6.74-15.65c0-.12,0-.23,0-.35,0-.28,0-.55.05-.86v-1.34l-.07-1.61c0-.11,0-.22,0-.35l-.07-.6c0-.1,0-.2,0-.32,0-.28-.06-.63-.12-1l-.21-1.21c-.06-.33-.14-.63-.2-.89s-.06-.24-.07-.3a14,14,0,0,0-.37-1.37l0-.07a28.74,28.74,0,0,0-5.38-10,36.28,36.28,0,0,0-4.24-4.42,53.35,53.35,0,0,0-5-3.93,74.69,74.69,0,0,0-11.59-6.41A136.34,136.34,0,0,0,212.68,63a240.78,240.78,0,0,0-25.24-4.22l-3.29-.36a4.4,4.4,0,0,0-4.87,4.41l.09,16.39.33,37.06c.09,9.11.19,18.56.3,28.16a4.43,4.43,0,0,0,1.41,3.18l.17.17a4.44,4.44,0,0,0,3.26,1.43A2.42,2.42,0,0,0,185.22,149.22Z"/><path class="cls-1" d="M160,0A160,160,0,1,0,320,160,160,160,0,0,0,160,0ZM278,201a8.59,8.59,0,0,1,4.47,1,2.76,2.76,0,0,1,1.26,2.39l-.07,1.55c-.05,1-.1,2.26-.2,3.84l-.13,2.17a1.72,1.72,0,0,0,0,.28l0,1.51c-.1,3-.28,5.85-.56,8.62a82.33,82.33,0,0,1-1.53,9.53A56.17,56.17,0,0,1,278,241.93a38.52,38.52,0,0,1-5.94,9.64,31.28,31.28,0,0,1-9.1,7.31,34.59,34.59,0,0,1-5.31,2.26,38.62,38.62,0,0,1-5.43,1.32,44.2,44.2,0,0,1-5.28.57h-.3c-.81,0-1.57.06-2.31,0h-1.26l-1.39-.06a40.93,40.93,0,0,1-9.89-1.75,46,46,0,0,1-8.43-3.52,60.7,60.7,0,0,1-11.85-8.54c-1.7-1.56-3.24-3.08-4.71-4.65-1.74-1.87-3.44-3.86-5.07-5.93a116,116,0,0,1-10-15.15c-.57-1-1.38-2.53-2.41-4.55a4.42,4.42,0,0,0-8.35,2l.21,40.89a4.4,4.4,0,0,1-4.4,4.4H161.28a4.41,4.41,0,0,1-4.4-4.4c0-2,.19-49.61.35-60.91l.23-16.8-6.67,15.73-.3.71a88.48,88.48,0,0,1-16.37,25c-.6.67-1.27,1.36-1.92,2-.25.24-.49.49-.76.76s-.51.52-.83.82l-.47.45-.51.48-.86.81-1,.85c-.64.57-1.29,1.16-2,1.71l-1.47,1.23-1.52,1.2a106.64,106.64,0,0,1-12.5,8.43,130.62,130.62,0,0,1-25.72,11.27c-2.11.68-4.17,1.28-6.12,1.81s-3.89,1-5.84,1.47l-1.88.42-2.69.69c-1.64.42-3,.75-4,1l-1.4.31a3.37,3.37,0,0,1-3.06-.94,6.13,6.13,0,0,1-1.38-3.93l-.07-1.69a8.67,8.67,0,0,1,.77-4.54,2.62,2.62,0,0,1,2-1.43c.5,0,2.35-.1,5-.33l1.87-.18,1.08-.17,1-.19.3-.06c1.84-.34,3.68-.72,5.47-1.13s3.73-.9,5.72-1.44a118.83,118.83,0,0,0,24.09-9.44,96.16,96.16,0,0,0,11.69-7.26l1.37-1,1.33-1c.66-.5,1.28-1,1.88-1.52l.85-.7c.3-.25.59-.51.88-.77l.06-.06.42-.36c.12-.12.25-.23.41-.37s.61-.53.9-.82l.58-.56.11-.09c.59-.56,1.2-1.14,1.76-1.73A79.51,79.51,0,0,0,136.71,209a80.7,80.7,0,0,0,6.7-11.58A88.61,88.61,0,0,0,150.67,174l.22-1.31c.09-.51.17-1,.22-1.44l.33-2.51c.1-.66.15-1.27.21-1.9,0-.25,0-.5.07-.79l.06-.7v-.06a4.41,4.41,0,0,0-1.18-3.43,4.35,4.35,0,0,0-3.34-1.39l-17.63.5-7.66.68c-3.19-.07-3.71-3.45-3.74-5.48l0-1.68c0-4.42,1.92-5.43,3.6-5.49l7.28.55,18.19.26a4.4,4.4,0,0,0,3.31-1.41,4.45,4.45,0,0,0,1.16-3.41c-.3-3.2-.73-6.42-1.3-9.57a100.46,100.46,0,0,0-2.84-11.4,84,84,0,0,0-4.74-11.82A80.67,80.67,0,0,0,127,90.33a89.87,89.87,0,0,0-10.71-8.87,99.46,99.46,0,0,0-11.78-7.09,120.62,120.62,0,0,0-24.19-9.18c-3.67-1-7.44-1.8-11.23-2.47l-.32,0L66,62.39c-2.59-.23-4.41-.31-5-.33a2.63,2.63,0,0,1-2-1.42,6.16,6.16,0,0,1-.62-1.86,12.69,12.69,0,0,1-.15-2.7l.07-1.7A7.33,7.33,0,0,1,58.72,52a4.6,4.6,0,0,1,.93-1.57,3.47,3.47,0,0,1,3.09-.93l1.37.3c1,.22,2.36.56,4,1l2.07.55,1.08.27.05,0c4,.88,8.09,2,12,3.16,2.33.72,4.4,1.41,6.34,2.12s4.24,1.58,6.47,2.52,4.72,2.08,6.48,2.92l1.69.84c.55.27,1.08.54,1.59.82l1.61.84,1.66.93a109.84,109.84,0,0,1,12.61,8.26,98.6,98.6,0,0,1,11.43,10.19,90,90,0,0,1,9.54,11.84,89,89,0,0,1,7.2,12.83l0,0a4.42,4.42,0,0,0,8.44-1.78c.23-22.65.38-41.1.44-54.85,0-1.4.07-1.63.44-2.19,3.93-6.05,9.57-5.22,17.36-4.08l.8.12c2.22.32,4.49.72,6.68,1.1h.06l4.77.8A256.11,256.11,0,0,1,215,53.55a149.58,149.58,0,0,1,27.24,9.91,83.91,83.91,0,0,1,12.65,7.6,61.75,61.75,0,0,1,5.66,4.76,45.28,45.28,0,0,1,4.9,5.46,40.52,40.52,0,0,1,3.86,6.16A34.39,34.39,0,0,1,271.86,94c.15.56.3,1.08.4,1.6l.12.6c.08.39.16.76.21,1l.26,1.82c0,.29.07.62.1,1,0,.21,0,.41.05.57l.06.82c0,.13,0,.27,0,.41l0,2-.06,1.62c0,.31-.05.65-.08,1,0,.19,0,.37-.05.48a33,33,0,0,1-3.21,11.17l-.62,1.23-.68,1.2c-.16.29-.35.58-.55.9l-.05.08-.27.43c-.13.2-.25.4-.38.59l-.32.45c-.36.52-.71,1-1.08,1.49l-.27.36-.39.5-.74.89a52.31,52.31,0,0,1-6.78,6.65c-.3.26-.62.51-1,.78l-.41.32-.61.48-.54.4c-.52.38-1.1.81-1.7,1.22-1.4,1-3,2-4.77,3.08a118.09,118.09,0,0,1-23.25,10.37A195.39,195.39,0,0,1,198,156.51c-3.7.66-7.56,1.25-11.47,1.75a4.39,4.39,0,0,0-3.84,4.81q.12,1.23.27,2.49a176.5,176.5,0,0,0,3,17.84,169.42,169.42,0,0,0,5.25,18.78,139.9,139.9,0,0,0,7.39,17.63,102,102,0,0,0,8.83,14.5c1.45,2,3,3.83,4.52,5.56,1.33,1.46,2.74,2.89,4.23,4.26a46.87,46.87,0,0,0,10.53,7.31A35.23,35.23,0,0,0,242,255.26H243c.25,0,.54,0,.81,0h.3c.65,0,1.24-.07,1.82-.12l.49,0a36.89,36.89,0,0,0,4.35-.68,28.35,28.35,0,0,0,4.17-1.25,24.2,24.2,0,0,0,3.82-1.87,22.08,22.08,0,0,0,6.22-5.59,28.87,28.87,0,0,0,4-7.48,45.67,45.67,0,0,0,2.15-8.34,72.37,72.37,0,0,0,.83-8.35c.1-2.48.12-5.11,0-7.83l-.05-1.34c0-.22,0-.29,0-.34l-.2-2c-.18-1.7-.36-3.09-.45-3.84l-.16-1.26a3.32,3.32,0,0,1,1.2-2.78,6.24,6.24,0,0,1,4-1.15Z"/><path class="cls-1" d="M581.43,71.78c3.64-13.34-1.1-24.13-13-29.59-10.73-4.94-26.22-5-41.43-.22-16.79,5.3-31.13,15.71-40.36,29.33-10,14.87-12.65,30.75-7.29,43.89-28.71,5.9-58.41,12.24-90.45,34.6a3.88,3.88,0,0,0-.84,5.56,3.93,3.93,0,0,0,5.59,1c28.82-20.32,55.47-26.79,89.81-33.53,6.25,8.34,16.14,14,28.31,16.33-27.5,10-49,23-63.93,38.62-13.84,14.46-21.81,30.78-23.71,48.53-1.67,16.64,4.69,32.55,17,42.56a48.1,48.1,0,0,0,30.68,10.58,59.52,59.52,0,0,0,18-2.88c23.62-7.21,48.37-33.08,56.36-58.89,5.06-16.38,3-30.89-5.8-42a29.4,29.4,0,0,0-31.14-10.4c-11.23,3.15-18.79,12.25-20.21,24.36v.18a4.39,4.39,0,0,0,4.18,4.44,3.79,3.79,0,0,0,4.09-3.53c.93-8.66,6.2-15.21,14.11-17.52a21.51,21.51,0,0,1,22.84,7.34c8.77,11.29,7,25.1,4,34.68-7.39,23.47-29.71,47-50.82,53.53-12.91,4.1-24.53,2.57-32.73-4.31-9.37-7.85-13.51-21.64-11.37-37.83,3.18-24,19.81-67.16,95.6-87.46a4.13,4.13,0,0,0,2.77-5.12,4.2,4.2,0,0,0-5-3.06c-27.05,3.73-37.53-4.39-41.57-10.69,15.18-3.24,28.12-6.54,41.25-11.72C568.41,96.07,578.56,81.67,581.43,71.78Zm-7.8-2.32c-4.59,15.48-27.18,26.36-40.24,31.47-14.1,5.57-28.34,8.94-41.71,11.71-1.78-9.19,1.57-20.93,9.54-33.25,13-19.34,37.77-31,55.06-31a26.09,26.09,0,0,1,11,2.09C574,53.67,576.26,60.22,573.63,69.46Z"/><path class="cls-1" d="M797.4,114.17a12,12,0,0,0,2.09-.18l.13,0a8,8,0,0,0,5.38-4.33,7.44,7.44,0,0,0-.29-6.46c-2.19-4.4-7.79-7-12.25-5.7a7.34,7.34,0,0,0-5.28,3.88,7.69,7.69,0,0,0,.11,6.88C788.91,112.18,793.33,114.17,797.4,114.17Z"/><path class="cls-1" d="M1033.38,167.2a3.89,3.89,0,0,0-3-1,4,4,0,0,0-2.9,1.65c-2,2.49-4.47,5.84-7.36,9.7-13.06,17.5-37.37,50.07-51.05,50.07a3.56,3.56,0,0,1-3.19-1.49c-5.16-7.23,5.12-37.1,12.62-58.91,3.1-9,6-17.5,7.84-24,.84-2.53-.38-5.11-3.11-6.57s-6.56-1.55-8.55,1l-.1.14a137.12,137.12,0,0,0-11.39,23.5c-11.17,17.24-34.26,52.8-48.55,53.9-3.65.21-5.58-1.68-5.89-5.77-1-13.67,17.5-45.44,38.12-47.46,1.22,0,3.89,0,4.67.89a1,1,0,0,1,.19.84v.17a4,4,0,0,0,3.58,4.13c2.11.43,4-1,4.66-3.39l0-.2a7.65,7.65,0,0,0-2.11-6.33c-3-3.17-8.75-4.3-13-4-28.35.81-41,19.71-45.06,27.8a49,49,0,0,0-3.89,10.48c-16.48,21.31-37.8,45.16-47.57,45.16a4.4,4.4,0,0,1-.64,0c-.4,0-.48-.16-.52-.24-1.27-2.16,3-11.9,6.71-20.5,8.34-19.16,18.73-43,6.69-52.89-4.6-3.79-10.2-2-15.14-.5a45.4,45.4,0,0,1-5.65,1.49,53.21,53.21,0,0,0,4.67-10.71c2.93-9.51.3-16.71-3.15-20.28a9.72,9.72,0,0,0-9.65-3c-2.89.79-8.15,3.77-10.86,14.93-2.06,9.07.11,20,4.94,24.79q.33.33.66.63c-1.37,1.79-2.9,3.83-4.56,6-13.22,17.61-37.82,50.39-51.3,50.39a3.65,3.65,0,0,1-3.3-1.45c-5.2-7.14,5.12-36.95,12.66-58.73,3.14-9.09,6.12-17.68,8-24.37.66-2.65-.83-5.31-3.71-6.63-3.08-1.4-6.38-.73-8,1.65-4.18,6.2-10.94,20.14-16.35,35.77-7.64,4.33-18,7.71-27,7.46-5.87-.17-10.33-1.83-13.29-4.94l.85-1.93c6.61-15.09,12.91-31.52,9.44-39a6.39,6.39,0,0,0-4.1-3.6c-4.39-1.19-8.91,1-12.72,6.2-7.16,9.78-9.95,27.79-2.95,39.52-15,33.67-32.6,58.61-40.25,56.91-2.38-.52-4.13-4-4.94-9.88-2.76-20,5.76-57.85,12.24-61.31.4-.22.7-.25,1.2.2a3.67,3.67,0,0,0,3.74.95,4,4,0,0,0,2.47-3.11,4.87,4.87,0,0,0-1.68-4.7,11.3,11.3,0,0,0-11.44-1.54c-4.73,1.87-9.37,6.67-13.27,13.22-1.92,2.45-4.29,5.62-7,9.27-13.06,17.5-37.37,50.07-51.11,50.07a1.82,1.82,0,0,1-1.61-.86c-5.36-7-.67-41.93,10.66-80.85a5.41,5.41,0,0,0,.12.55l.06.26.14.21c1.16,1.73,3.44,2.78,5.34,1.64,17.53-7.21,48.53-28.46,70.22-51.63h0C711.74,68,711.7,44.62,702.68,32.36,696,23.62,684.89,19.74,672.94,22c-46.48,7.81-73.61,91.18-80.82,116.53-12.18,41.82-14.62,78.37-6.21,93.1,2.22,3.9,5.18,6.35,8.8,7.27a12.33,12.33,0,0,0,3,.35c15,0,35.64-24.53,51.22-44.94-1.82,10.91-1.32,21.57,1.43,30.1,3.25,10.07,9.34,16.39,17.61,18.27a10,10,0,0,0,2.12.23c8.18,0,18.3-9.73,30.14-29A308.63,308.63,0,0,0,716,184.36c5,3.78,11.82,5.58,19.91,5.22a61.33,61.33,0,0,0,20.38-4.77C751.69,201,749.39,217.4,753.4,228c2.17,5.75,6,9.4,11.5,10.84a12.42,12.42,0,0,0,3,.35c17.94,0,44.12-35,60.11-56.31,2.31-3.09,4.37-5.84,6.12-8.1,4.65.61,9.25-1,12.73-2.2a27.64,27.64,0,0,1,4.24-1.26c1.23-.14,2.13,0,2.41.36.77,1-.65,4.57-1.31,6.23s-1.85,3.93-3.16,6.61c-7.46,15.27-21.35,43.67-14.25,56.17,2.06,3.63,5.67,5.69,10.73,6.11h.15c13.55-.24,33.49-20.84,49.32-40.29a22.45,22.45,0,0,0,3.52,9.64c2.51,3.65,7.39,7.81,16.36,6.86,10.14-1.15,22.87-12.23,38.8-33.8-3.75,14.9-6,32-.29,42a15.48,15.48,0,0,0,10,7.64,12.52,12.52,0,0,0,3,.35c18.19,0,44.67-35.73,60.83-57.55,2.64-3.56,4.92-6.63,6.76-9l.06-.09A3.85,3.85,0,0,0,1033.38,167.2ZM832.3,161.89c-3.61-10.42-1-18.56,1.82-21.44a2.44,2.44,0,0,1,1.42-.9h.08a2.79,2.79,0,0,1,.88,1.55C837.53,144.44,837.16,152.72,832.3,161.89ZM715,166.37c-1.43-8.28,1.1-17.44,4.52-23.17a10.6,10.6,0,0,1,3-3.6C723,141.62,721.74,149.9,715,166.37ZM610.47,140.88c13.59-44,35.92-98.62,65.11-108.46a23.67,23.67,0,0,1,8-1.48,15.25,15.25,0,0,1,12.59,5.89c6.48,8.43,5.75,27.41-17.65,53.16-20.58,22.38-51.19,44.56-66.94,51.29a3.66,3.66,0,0,0-1.46.81C610.22,141.69,610.34,141.29,610.47,140.88Z"/><path class="cls-1" d="M1263.5,116.34c11.27-17.71,18-36.78,18.91-53.7.89-16.19-3.69-28.86-12.55-34.77-5.81-3.88-12.6-5-20.18-3.35-33.92,7.39-76.07,68.61-92.74,94.79,3.54-31.55,4.36-54.79,4.53-61.51,0-3.18-2.42-5.71-5.89-6.17a6.35,6.35,0,0,0-7.25,4.65l0,.1c-.86,4.47-2.36,15.8-4.44,31.48-2.47,18.67-5.54,41.83-9,64.44-.87.1-1.71.16-2.59.23-1.23.09-2.5.19-3.84.39-21.6,2.81-26.38,10.74-26.59,16.89-.42,9.57,11.46,12.55,17.66,13.65-9.38,17.4-43.55,83.16-34.37,102.2a9.17,9.17,0,0,0,7,5.32,20.1,20.1,0,0,0,3.34.29c26.68,0,43-57,52.14-106.37A142.33,142.33,0,0,0,1195.79,173c30.39,14.87,24.17,40.84,18.15,66-4.52,18.85-8.79,36.66,4.75,46.43a13.38,13.38,0,0,0,8.27,2.65c13.65,0,30.5-16.76,34.43-20.88a3.79,3.79,0,0,0,1.28-3.68,4.44,4.44,0,0,0-3-3.22,3.71,3.71,0,0,0-3.76,1c-11.46,11.47-26,22.1-32.4,17.58-6.76-4.9-3.13-17.41,1.07-31.91,7.17-24.74,16.94-58.42-18.72-78.54C1229.86,155.85,1250.27,137.44,1263.5,116.34Zm-133.25,68.5c-4.68,24.19-11.59,49.12-19,68.65-11.38,29.84-17.25,30.07-17.79,30a1.73,1.73,0,0,1-1.33-1.05c-1.33-2.65-1.64-11.79,11.16-43.28,7.79-19.16,18-40.55,25.16-54.53.39,0,.78.08,1.18.13Zm-20.48-14.51c.29-5.48,13.21-8.71,19.73-9.15l.2,0a25.8,25.8,0,0,1,2.77-.36c-2.11,3.39-5,8.35-8.79,15C1116.81,175,1109.77,172.73,1109.77,170.33Zm135.35-59c-14.9,23.53-32.15,41-51.27,51.95A136,136,0,0,0,1152.62,153c.66-4.59,1.33-9.27,2-13.59a589.46,589.46,0,0,1,44-63.16C1220.77,49,1239,33.71,1251.36,32.07a12.45,12.45,0,0,1,11,3.41C1270.87,43.7,1267.7,72.41,1245.12,111.34ZM1184,168.12A110.18,110.18,0,0,1,1149,176.9c.92-5.25,1.84-10.63,2.51-16A134.18,134.18,0,0,1,1184,168.12Z"/><path class="cls-1" d="M1315.89,114.17A12,12,0,0,0,1318,114l.12,0a8,8,0,0,0,5.39-4.33,7.47,7.47,0,0,0-.29-6.46c-2.2-4.4-7.79-7-12.26-5.7a7.32,7.32,0,0,0-5.27,3.88,7.72,7.72,0,0,0,.1,6.88C1307.39,112.18,1311.82,114.18,1315.89,114.17Z"/><path class="cls-1" d="M1921.13,167.11a4.09,4.09,0,0,0-2.68-.81,3.58,3.58,0,0,0-2.69,1.51c-9.79,12.32-29.46,37.07-50,54.25,4-11.49,3.74-23.28-.59-38.24-1.2-4.42-2.61-8.45-4-12.35-2.91-8.29-5.66-16.13-5.41-25.7.25-6.67,2.47-12.28,5.66-14.3a5.48,5.48,0,0,1,5.44-.22,3,3,0,0,1,1.61,2.22c.67,3-1.24,7.52-5.12,12a3.7,3.7,0,0,0,.12,5.37,4,4,0,0,0,5.82.11l.07-.08c5.6-6.43,8.16-13,7.2-18.59a11.43,11.43,0,0,0-5.64-8.19c-4.07-2.57-10.54-2.48-16.1.21-4.49,2.18-12.26,7.94-13.75,22-.71,7.74.61,14.86,2.53,22-1.85,2.36-4.13,5.38-6.74,8.86-13.21,17.61-37.82,50.39-51.27,50.39a2.33,2.33,0,0,1-2-1.07c-6.46-8.61,4-56.22,10.79-81.05a4.74,4.74,0,0,0,.37,1.18,3.67,3.67,0,0,0,2.26,2.16,3.33,3.33,0,0,0,2.83-.27c17.54-7.21,48.54-28.45,70.23-51.63h0C1897,68,1897,44.62,1888,32.4c-6.22-8.71-17.64-12.7-29.78-10.42-46.49,7.89-73.61,91.2-80.81,116.53a280,280,0,0,0-9.05,43.91c-.62.69-1.46,1.62-2.45,2.74-6.86,7.74-27.75,31.29-34.65,27.55-2-1.08-2.69-4.65-1.9-9.8,1-6.75,4.5-15.22,9-22.1,5.12-7.76,10.88-12.59,16.3-13.63,2.71-.68,3,.23,3.14.61.45,1.11-.24,4.29-3.65,9.59a4.05,4.05,0,0,0,1.12,5.69,4,4,0,0,0,5.55-1c1.51-2.26,6.29-10.07,4.74-15.9-.49-2.38-2.69-7.73-12.47-7.19-19.48.92-33.64,19.82-37.48,35.65-16.21,20.7-36.39,42.89-45.8,42.89a4.54,4.54,0,0,1-.65,0c-.4,0-.47-.16-.52-.24-1.27-2.16,3-11.9,6.71-20.5,8.34-19.16,18.73-43,6.69-52.89-4.6-3.79-10.2-2-15.14-.5a45.4,45.4,0,0,1-5.65,1.49,53.21,53.21,0,0,0,4.67-10.71c2.93-9.51.3-16.71-3.15-20.28a9.7,9.7,0,0,0-9.65-3c-2.89.79-8.15,3.77-10.85,14.93-2.07,9.07.1,20,4.93,24.79.14.15.29.28.44.42-1.47,1.93-3.12,4.15-4.93,6.57-13.06,17.5-37.37,50.07-51.06,50.07a3.56,3.56,0,0,1-3.18-1.49c-5.16-7.23,5.11-37.1,12.62-58.9,3.1-9,6-17.51,7.84-24,.84-2.53-.38-5.11-3.11-6.57s-6.56-1.55-8.56,1l-.09.14a137.12,137.12,0,0,0-11.39,23.5c-11.17,17.24-34.26,52.8-48.55,53.9-3.65.21-5.59-1.68-5.89-5.77-1-13.67,17.5-45.44,38.12-47.46,1.22,0,3.89,0,4.67.89a.94.94,0,0,1,.18.84v.17a4,4,0,0,0,3.57,4.13c2.12.43,4.06-1,4.66-3.39l0-.2a7.65,7.65,0,0,0-2.11-6.33c-3-3.17-8.75-4.3-13-4-28.35.81-41,19.71-45.06,27.8-.72,1.42-1.36,2.86-1.93,4.3-9.21,11.07-21.51,25.4-31.71,34.33-10.44,9.56-13.78,9.13-14.48,8.85-1.13-.9-1.24-8.19,11.18-32,7.6-15.55,19.1-39,5-46.52-17.17-9-44.11,32-55.13,50.54A408.86,408.86,0,0,1,1447,146a4.17,4.17,0,0,0,.25.67,3.61,3.61,0,0,0,2,2.06,4.12,4.12,0,0,0,3.38-.14c17.08-7.17,48.65-28.94,69.91-51.67,26.88-28.92,26.84-52.31,17.86-64.53-6.22-8.71-17.64-12.7-29.78-10.42-46.49,7.89-73.61,91.2-80.82,116.54a345.82,345.82,0,0,0-8.55,39.81,260.94,260.94,0,0,1-29.66,27.4c-18.8,15-35.06,23.89-44.6,24.54-3.49.24-5.54-1-6.49-4-4.11-13,15.42-51.79,30.73-61.1,5.62-3.42,8-1,8.77-.27,1,1,1.72,2.78-.33,8.57-2.76,6.28-7.12,12-8.72,12.8a4.11,4.11,0,0,0-2.21,2.59,3.63,3.63,0,0,0,.45,2.9,4.12,4.12,0,0,0,2.56,2.14,3.57,3.57,0,0,0,2.91-.47c3.81-2.29,9.42-8.75,12.31-16.18,3.85-9.13,1.57-14.52-1-17.46-5.55-5.92-13.81-6.71-23.23-2.22a57,57,0,0,0-13.82,9.1,3.46,3.46,0,0,0-1.48,1.18l-.51.65a67.74,67.74,0,0,0-12.31,16.26c-13.75,18.05-33.89,42.86-45.63,42.86a3.66,3.66,0,0,1-3.3-1.45c-5.19-7.14,5.13-36.95,12.66-58.72,3.15-9.1,6.12-17.69,8-24.38.66-2.65-.83-5.31-3.71-6.63-3.07-1.4-6.38-.73-8,1.65-9.32,13.85-31.61,66.28-22.69,89.95,2.17,5.75,6,9.4,11.51,10.84a12.3,12.3,0,0,0,3,.35c11.64,0,26.77-14.74,40.32-30.93a41.21,41.21,0,0,0,.76,16.16c2.46,8.9,8.58,13.84,17,13.84a23.64,23.64,0,0,0,2.48-.14c18.94-2,51.31-25.13,72.53-46-1.42,13.05-2.24,29.2.16,41.66.27,2.85,2.68,4.78,6,4.78h.33c3.07-.11,5.32-1.84,5.39-4.12,1.42-11.15,11.08-30.68,24.64-49.82,12.86-18.66,24.43-29.28,29.52-27a2.13,2.13,0,0,1,1.35,1.33c1.21,3.52-3.91,12.49-8.87,21.16-2.87,5-5.84,10.21-8.36,15.46-6.56,13.42-8.45,28.26-4.58,36.09a9.12,9.12,0,0,0,6.35,5.28c6,1.39,13.08-1.86,22.84-10.53,7.35-6.46,15.47-15.25,23.13-24,.07,5.31,1.34,10.11,3.84,13.74s7.39,7.81,16.35,6.86c10.15-1.15,22.87-12.23,38.8-33.8-3.74,14.9-6,32-.28,42a15.48,15.48,0,0,0,10,7.64,12.6,12.6,0,0,0,3,.35c18.19,0,44.66-35.73,60.83-57.55,1.93-2.61,3.67-5,5.18-7,4.85.83,9.68-.84,13.3-2.11a27.64,27.64,0,0,1,4.24-1.26c1.23-.14,2.13,0,2.41.36.77,1-.65,4.57-1.31,6.23s-1.85,3.93-3.16,6.61c-7.46,15.26-21.35,43.67-14.25,56.17,2.06,3.63,5.67,5.69,10.73,6.11h.15c13.18-.23,32.4-19.72,48-38.68,1.59,7,6.4,11.62,13.67,12.63,13.92,1.78,28.6-14.05,38-24.65-2.19,32,5.87,41,13.2,42.73a12.44,12.44,0,0,0,3,.35c18.06,0,44.2-35.45,60.17-57.11q1.69-2.31,3.21-4.34c2.68,9.06,5.27,18.48,4.93,29.43-.43,25.66-9.44,34.91-17,35h-.15c-5.15,0-9.37-4.27-9.64-9.82a9.27,9.27,0,0,1,2.35-6.94,9.41,9.41,0,0,1,7.1-2.78,4.15,4.15,0,1,0,0-8.29c-12.36,0-16.45,7.77-17.63,11.11a17.83,17.83,0,0,0,17.29,23.92c5.67,0,12.12-2.08,18.86-6.21,19.78-12.19,43.28-35.8,69.87-70.22A4.18,4.18,0,0,0,1921.13,167.11Zm-267.33-5.22c-3.61-10.42-1-18.56,1.82-21.44a2.44,2.44,0,0,1,1.42-.9h.08a2.84,2.84,0,0,1,.89,1.55C1659,144.44,1658.66,152.72,1653.8,161.89Zm141.52-19.58c.14-.49.28-1,.42-1.43,13.59-44,35.92-98.62,65.11-108.46a23.67,23.67,0,0,1,8-1.48,15.25,15.25,0,0,1,12.59,5.89c6.59,8.57,5.93,27.64-17.66,53.16-20.6,22.41-51.24,44.61-67,51.31A3.5,3.5,0,0,0,1795.32,142.31Zm-346.74-1.44c24.81-83.74,51.18-103.89,64.71-108.45a25.72,25.72,0,0,1,8.32-1.5c5.26,0,9.72,2,12.62,5.88,9.5,13-2.19,36.08-18,53.19-20.6,22.41-51.24,44.61-67,51.31a3.55,3.55,0,0,0-1,.54C1448.37,141.52,1448.47,141.19,1448.58,140.87Z"/></g></g></svg>